ISO-10303-21;
HEADER;
FILE_DESCRIPTION(('FreeCAD Model'),'2;1');
FILE_NAME('Open CASCADE Shape Model','2026-10-03T15:50:26',('SargoDevel'
    ),(''),'Open CASCADE STEP processor 7.8','FreeCAD','Unknown');
FILE_SCHEMA((
'AP242_MANAGED_MODEL_BASED_3D_ENGINEERING_MIM_LF. {1 0 10303 442 1 1 4 
}'));
ENDSEC;
DATA;
#1 = APPLICATION_PROTOCOL_DEFINITION('international standard',
  'ap242_managed_model_based_3d_engineering',2013,#2);
#2 = APPLICATION_CONTEXT('Managed model based 3d engineering');
#3 = SHAPE_DEFINITION_REPRESENTATION(#4,#10);
#4 = PRODUCT_DEFINITION_SHAPE('','',#5);
#5 = PRODUCT_DEFINITION('design','',#6,#9);
#6 = PRODUCT_DEFINITION_FORMATION('','',#7);
#7 = PRODUCT('Molex_KK-254F_x2','Molex_KK-254F_x2','',(#8));
#8 = PRODUCT_CONTEXT('',#2,'mechanical');
#9 = PRODUCT_DEFINITION_CONTEXT('part definition',#2,'design');
#10 = ADVANCED_BREP_SHAPE_REPRESENTATION('',(#11,#15),#2332);
#11 = AXIS2_PLACEMENT_3D('',#12,#13,#14);
#12 = CARTESIAN_POINT('',(0.,0.,0.));
#13 = DIRECTION('',(0.,0.,1.));
#14 = DIRECTION('',(1.,0.,-0.));
#15 = MANIFOLD_SOLID_BREP('',#16);
#16 = CLOSED_SHELL('',(#17,#231,#262,#354,#401,#418,#449,#480,#504,#528,
    #545,#576,#600,#624,#641,#672,#696,#720,#744,#768,#792,#816,#840,
    #864,#888,#905,#1049,#1080,#1104,#1128,#1145,#1176,#1200,#1224,#1241
    ,#1257,#1274,#1285,#1316,#1340,#1364,#1381,#1412,#1436,#1460,#1477,
    #1496,#1527,#1583,#1639,#1663,#1687,#1727,#1767,#1784,#1815,#1871,
    #1895,#1935,#1959,#1999,#2023,#2072,#2114,#2156,#2179,#2202,#2214,
    #2231,#2243,#2255,#2267,#2279,#2296,#2308,#2320));
#17 = ADVANCED_FACE('',(#18,#68,#102,#136),#226,.F.);
#18 = FACE_BOUND('',#19,.F.);
#19 = EDGE_LOOP('',(#20,#30,#38,#46,#54,#62));
#20 = ORIENTED_EDGE('',*,*,#21,.T.);
#21 = EDGE_CURVE('',#22,#24,#26,.T.);
#22 = VERTEX_POINT('',#23);
#23 = CARTESIAN_POINT('',(-2.82067,3.4798,0.));
#24 = VERTEX_POINT('',#25);
#25 = CARTESIAN_POINT('',(-2.82067,-1.6002,0.));
#26 = LINE('',#27,#28);
#27 = CARTESIAN_POINT('',(-2.82067,3.4798,0.));
#28 = VECTOR('',#29,1.);
#29 = DIRECTION('',(0.,-1.,0.));
#30 = ORIENTED_EDGE('',*,*,#31,.T.);
#31 = EDGE_CURVE('',#24,#32,#34,.T.);
#32 = VERTEX_POINT('',#33);
#33 = CARTESIAN_POINT('',(-2.54,-1.6002,0.));
#34 = LINE('',#35,#36);
#35 = CARTESIAN_POINT('',(-2.82067,-1.6002,0.));
#36 = VECTOR('',#37,1.);
#37 = DIRECTION('',(1.,0.,0.));
#38 = ORIENTED_EDGE('',*,*,#39,.T.);
#39 = EDGE_CURVE('',#32,#40,#42,.T.);
#40 = VERTEX_POINT('',#41);
#41 = CARTESIAN_POINT('',(2.54,-1.6002,0.));
#42 = LINE('',#43,#44);
#43 = CARTESIAN_POINT('',(-2.82067,-1.6002,0.));
#44 = VECTOR('',#45,1.);
#45 = DIRECTION('',(1.,0.,0.));
#46 = ORIENTED_EDGE('',*,*,#47,.T.);
#47 = EDGE_CURVE('',#40,#48,#50,.T.);
#48 = VERTEX_POINT('',#49);
#49 = CARTESIAN_POINT('',(2.82067,-1.6002,0.));
#50 = LINE('',#51,#52);
#51 = CARTESIAN_POINT('',(-2.82067,-1.6002,0.));
#52 = VECTOR('',#53,1.);
#53 = DIRECTION('',(1.,0.,0.));
#54 = ORIENTED_EDGE('',*,*,#55,.T.);
#55 = EDGE_CURVE('',#48,#56,#58,.T.);
#56 = VERTEX_POINT('',#57);
#57 = CARTESIAN_POINT('',(2.82067,3.4798,0.));
#58 = LINE('',#59,#60);
#59 = CARTESIAN_POINT('',(2.82067,-1.6002,0.));
#60 = VECTOR('',#61,1.);
#61 = DIRECTION('',(0.,1.,0.));
#62 = ORIENTED_EDGE('',*,*,#63,.T.);
#63 = EDGE_CURVE('',#56,#22,#64,.T.);
#64 = LINE('',#65,#66);
#65 = CARTESIAN_POINT('',(2.82067,3.4798,0.));
#66 = VECTOR('',#67,1.);
#67 = DIRECTION('',(-1.,0.,0.));
#68 = FACE_BOUND('',#69,.F.);
#69 = EDGE_LOOP('',(#70,#80,#88,#96));
#70 = ORIENTED_EDGE('',*,*,#71,.F.);
#71 = EDGE_CURVE('',#72,#74,#76,.T.);
#72 = VERTEX_POINT('',#73);
#73 = CARTESIAN_POINT('',(-0.5715,0.6985,0.));
#74 = VERTEX_POINT('',#75);
#75 = CARTESIAN_POINT('',(-1.9685,0.6985,0.));
#76 = LINE('',#77,#78);
#77 = CARTESIAN_POINT('',(-0.8255,0.6985,0.));
#78 = VECTOR('',#79,1.);
#79 = DIRECTION('',(-1.,0.,0.));
#80 = ORIENTED_EDGE('',*,*,#81,.F.);
#81 = EDGE_CURVE('',#82,#72,#84,.T.);
#82 = VERTEX_POINT('',#83);
#83 = CARTESIAN_POINT('',(-0.5715,-0.6985,0.));
#84 = LINE('',#85,#86);
#85 = CARTESIAN_POINT('',(-0.5715,-0.4445,0.));
#86 = VECTOR('',#87,1.);
#87 = DIRECTION('',(0.,1.,0.));
#88 = ORIENTED_EDGE('',*,*,#89,.F.);
#89 = EDGE_CURVE('',#90,#82,#92,.T.);
#90 = VERTEX_POINT('',#91);
#91 = CARTESIAN_POINT('',(-1.9685,-0.6985,5.551115123126E-17));
#92 = LINE('',#93,#94);
#93 = CARTESIAN_POINT('',(-1.7145,-0.6985,0.));
#94 = VECTOR('',#95,1.);
#95 = DIRECTION('',(1.,0.,0.));
#96 = ORIENTED_EDGE('',*,*,#97,.F.);
#97 = EDGE_CURVE('',#74,#90,#98,.T.);
#98 = LINE('',#99,#100);
#99 = CARTESIAN_POINT('',(-1.9685,0.4445,0.));
#100 = VECTOR('',#101,1.);
#101 = DIRECTION('',(0.,-1.,0.));
#102 = FACE_BOUND('',#103,.F.);
#103 = EDGE_LOOP('',(#104,#114,#122,#130));
#104 = ORIENTED_EDGE('',*,*,#105,.F.);
#105 = EDGE_CURVE('',#106,#108,#110,.T.);
#106 = VERTEX_POINT('',#107);
#107 = CARTESIAN_POINT('',(1.9685,-0.6985,0.));
#108 = VERTEX_POINT('',#109);
#109 = CARTESIAN_POINT('',(1.9685,0.6985,0.));
#110 = LINE('',#111,#112);
#111 = CARTESIAN_POINT('',(1.9685,-0.4445,0.));
#112 = VECTOR('',#113,1.);
#113 = DIRECTION('',(0.,1.,0.));
#114 = ORIENTED_EDGE('',*,*,#115,.F.);
#115 = EDGE_CURVE('',#116,#106,#118,.T.);
#116 = VERTEX_POINT('',#117);
#117 = CARTESIAN_POINT('',(0.5715,-0.6985,5.551115123126E-17));
#118 = LINE('',#119,#120);
#119 = CARTESIAN_POINT('',(0.8255,-0.6985,0.));
#120 = VECTOR('',#121,1.);
#121 = DIRECTION('',(1.,0.,0.));
#122 = ORIENTED_EDGE('',*,*,#123,.F.);
#123 = EDGE_CURVE('',#124,#116,#126,.T.);
#124 = VERTEX_POINT('',#125);
#125 = CARTESIAN_POINT('',(0.5715,0.6985,0.));
#126 = LINE('',#127,#128);
#127 = CARTESIAN_POINT('',(0.5715,0.4445,0.));
#128 = VECTOR('',#129,1.);
#129 = DIRECTION('',(0.,-1.,0.));
#130 = ORIENTED_EDGE('',*,*,#131,.F.);
#131 = EDGE_CURVE('',#108,#124,#132,.T.);
#132 = LINE('',#133,#134);
#133 = CARTESIAN_POINT('',(1.7145,0.6985,0.));
#134 = VECTOR('',#135,1.);
#135 = DIRECTION('',(-1.,0.,0.));
#136 = FACE_BOUND('',#137,.F.);
#137 = EDGE_LOOP('',(#138,#148,#156,#164,#172,#180,#188,#196,#204,#212,
    #220));
#138 = ORIENTED_EDGE('',*,*,#139,.F.);
#139 = EDGE_CURVE('',#140,#142,#144,.T.);
#140 = VERTEX_POINT('',#141);
#141 = CARTESIAN_POINT('',(-1.509202232143,2.452914285714,
    1.066492412515E-17));
#142 = VERTEX_POINT('',#143);
#143 = CARTESIAN_POINT('',(-1.340813839286,2.452914285714,
    1.066492412515E-17));
#144 = LINE('',#145,#146);
#145 = CARTESIAN_POINT('',(-1.509202232143,2.452914285714,
    1.066492412515E-17));
#146 = VECTOR('',#147,1.);
#147 = DIRECTION('',(1.,0.,0.));
#148 = ORIENTED_EDGE('',*,*,#149,.F.);
#149 = EDGE_CURVE('',#150,#140,#152,.T.);
#150 = VERTEX_POINT('',#151);
#151 = CARTESIAN_POINT('',(-1.509202232143,2.54,0.));
#152 = LINE('',#153,#154);
#153 = CARTESIAN_POINT('',(-1.509202232143,2.54,0.));
#154 = VECTOR('',#155,1.);
#155 = DIRECTION('',(0.,-1.,1.224646799147E-16));
#156 = ORIENTED_EDGE('',*,*,#157,.F.);
#157 = EDGE_CURVE('',#158,#150,#160,.T.);
#158 = VERTEX_POINT('',#159);
#159 = CARTESIAN_POINT('',(-1.070371875,2.54,0.));
#160 = LINE('',#161,#162);
#161 = CARTESIAN_POINT('',(-1.070371875,2.54,0.));
#162 = VECTOR('',#163,1.);
#163 = DIRECTION('',(-1.,-0.,0.));
#164 = ORIENTED_EDGE('',*,*,#165,.F.);
#165 = EDGE_CURVE('',#166,#158,#168,.T.);
#166 = VERTEX_POINT('',#167);
#167 = CARTESIAN_POINT('',(-1.070371875,2.452914285714,
    1.066492412515E-17));
#168 = LINE('',#169,#170);
#169 = CARTESIAN_POINT('',(-1.070371875,2.452914285714,
    1.066492412515E-17));
#170 = VECTOR('',#171,1.);
#171 = DIRECTION('',(0.,1.,-1.224646799147E-16));
#172 = ORIENTED_EDGE('',*,*,#173,.F.);
#173 = EDGE_CURVE('',#174,#166,#176,.T.);
#174 = VERTEX_POINT('',#175);
#175 = CARTESIAN_POINT('',(-1.238760267857,2.452914285714,
    1.066492412515E-17));
#176 = LINE('',#177,#178);
#177 = CARTESIAN_POINT('',(-1.238760267857,2.452914285714,
    1.066492412515E-17));
#178 = VECTOR('',#179,1.);
#179 = DIRECTION('',(1.,0.,0.));
#180 = ORIENTED_EDGE('',*,*,#181,.F.);
#181 = EDGE_CURVE('',#182,#174,#184,.T.);
#182 = VERTEX_POINT('',#183);
#183 = CARTESIAN_POINT('',(-1.238760267857,1.778,9.331808609503E-17));
#184 = LINE('',#185,#186);
#185 = CARTESIAN_POINT('',(-1.238760267857,1.778,9.331808609503E-17));
#186 = VECTOR('',#187,1.);
#187 = DIRECTION('',(0.,1.,-1.224646799147E-16));
#188 = ORIENTED_EDGE('',*,*,#189,.F.);
#189 = EDGE_CURVE('',#190,#182,#192,.T.);
#190 = VERTEX_POINT('',#191);
#191 = CARTESIAN_POINT('',(-1.341834375,1.778,9.331808609503E-17));
#192 = LINE('',#193,#194);
#193 = CARTESIAN_POINT('',(-1.341834375,1.778,9.331808609503E-17));
#194 = VECTOR('',#195,1.);
#195 = DIRECTION('',(1.,0.,0.));
#196 = ORIENTED_EDGE('',*,*,#197,.F.);
#197 = EDGE_CURVE('',#198,#190,#200,.T.);
#198 = VERTEX_POINT('',#199);
#199 = CARTESIAN_POINT('',(-1.524,1.815011428571,8.878549334184E-17));
#200 = LINE('',#201,#202);
#201 = CARTESIAN_POINT('',(-1.524,1.815011428571,8.878549334184E-17));
#202 = VECTOR('',#203,1.);
#203 = DIRECTION('',(0.979977835814,-0.199106607911,2.438352700677E-17)
  );
#204 = ORIENTED_EDGE('',*,*,#205,.F.);
#205 = EDGE_CURVE('',#206,#198,#208,.T.);
#206 = VERTEX_POINT('',#207);
#207 = CARTESIAN_POINT('',(-1.524,1.908628571429,7.732069990731E-17));
#208 = LINE('',#209,#210);
#209 = CARTESIAN_POINT('',(-1.524,1.908628571429,7.732069990731E-17));
#210 = VECTOR('',#211,1.);
#211 = DIRECTION('',(0.,-1.,1.224646799147E-16));
#212 = ORIENTED_EDGE('',*,*,#213,.F.);
#213 = EDGE_CURVE('',#214,#206,#216,.T.);
#214 = VERTEX_POINT('',#215);
#215 = CARTESIAN_POINT('',(-1.340813839286,1.871617142857,
    8.18532926605E-17));
#216 = LINE('',#217,#218);
#217 = CARTESIAN_POINT('',(-1.340813839286,1.871617142857,
    8.18532926605E-17));
#218 = VECTOR('',#219,1.);
#219 = DIRECTION('',(-0.980193737099,0.198041000179,-2.425302769691E-17)
  );
#220 = ORIENTED_EDGE('',*,*,#221,.F.);
#221 = EDGE_CURVE('',#142,#214,#222,.T.);
#222 = LINE('',#223,#224);
#223 = CARTESIAN_POINT('',(-1.340813839286,2.452914285714,
    1.066492412515E-17));
#224 = VECTOR('',#225,1.);
#225 = DIRECTION('',(0.,-1.,1.224646799147E-16));
#226 = PLANE('',#227);
#227 = AXIS2_PLACEMENT_3D('',#228,#229,#230);
#228 = CARTESIAN_POINT('',(8.284210926061E-17,0.9398,0.));
#229 = DIRECTION('',(0.,0.,1.));
#230 = DIRECTION('',(1.,0.,0.));
#231 = ADVANCED_FACE('',(#232),#257,.F.);
#232 = FACE_BOUND('',#233,.F.);
#233 = EDGE_LOOP('',(#234,#242,#250,#256));
#234 = ORIENTED_EDGE('',*,*,#235,.T.);
#235 = EDGE_CURVE('',#22,#236,#238,.T.);
#236 = VERTEX_POINT('',#237);
#237 = CARTESIAN_POINT('',(-2.82067,3.4798,12.95));
#238 = LINE('',#239,#240);
#239 = CARTESIAN_POINT('',(-2.82067,3.4798,0.));
#240 = VECTOR('',#241,1.);
#241 = DIRECTION('',(0.,0.,1.));
#242 = ORIENTED_EDGE('',*,*,#243,.T.);
#243 = EDGE_CURVE('',#236,#244,#246,.T.);
#244 = VERTEX_POINT('',#245);
#245 = CARTESIAN_POINT('',(-2.82067,-1.6002,12.95));
#246 = LINE('',#247,#248);
#247 = CARTESIAN_POINT('',(-2.82067,3.4798,12.95));
#248 = VECTOR('',#249,1.);
#249 = DIRECTION('',(0.,-1.,0.));
#250 = ORIENTED_EDGE('',*,*,#251,.F.);
#251 = EDGE_CURVE('',#24,#244,#252,.T.);
#252 = LINE('',#253,#254);
#253 = CARTESIAN_POINT('',(-2.82067,-1.6002,0.));
#254 = VECTOR('',#255,1.);
#255 = DIRECTION('',(0.,0.,1.));
#256 = ORIENTED_EDGE('',*,*,#21,.F.);
#257 = PLANE('',#258);
#258 = AXIS2_PLACEMENT_3D('',#259,#260,#261);
#259 = CARTESIAN_POINT('',(-2.82067,3.4798,0.));
#260 = DIRECTION('',(1.,0.,0.));
#261 = DIRECTION('',(0.,-1.,0.));
#262 = ADVANCED_FACE('',(#263,#281,#315),#349,.F.);
#263 = FACE_BOUND('',#264,.F.);
#264 = EDGE_LOOP('',(#265,#273,#279,#280));
#265 = ORIENTED_EDGE('',*,*,#266,.T.);
#266 = EDGE_CURVE('',#56,#267,#269,.T.);
#267 = VERTEX_POINT('',#268);
#268 = CARTESIAN_POINT('',(2.82067,3.4798,12.95));
#269 = LINE('',#270,#271);
#270 = CARTESIAN_POINT('',(2.82067,3.4798,0.));
#271 = VECTOR('',#272,1.);
#272 = DIRECTION('',(0.,0.,1.));
#273 = ORIENTED_EDGE('',*,*,#274,.T.);
#274 = EDGE_CURVE('',#267,#236,#275,.T.);
#275 = LINE('',#276,#277);
#276 = CARTESIAN_POINT('',(2.82067,3.4798,12.95));
#277 = VECTOR('',#278,1.);
#278 = DIRECTION('',(-1.,0.,0.));
#279 = ORIENTED_EDGE('',*,*,#235,.F.);
#280 = ORIENTED_EDGE('',*,*,#63,.F.);
#281 = FACE_BOUND('',#282,.F.);
#282 = EDGE_LOOP('',(#283,#293,#301,#309));
#283 = ORIENTED_EDGE('',*,*,#284,.F.);
#284 = EDGE_CURVE('',#285,#287,#289,.T.);
#285 = VERTEX_POINT('',#286);
#286 = CARTESIAN_POINT('',(0.8001,3.4798,4.572));
#287 = VERTEX_POINT('',#288);
#288 = CARTESIAN_POINT('',(0.8001,3.4798,1.27));
#289 = LINE('',#290,#291);
#290 = CARTESIAN_POINT('',(0.8001,3.4798,2.286));
#291 = VECTOR('',#292,1.);
#292 = DIRECTION('',(-0.,-0.,-1.));
#293 = ORIENTED_EDGE('',*,*,#294,.F.);
#294 = EDGE_CURVE('',#295,#285,#297,.T.);
#295 = VERTEX_POINT('',#296);
#296 = CARTESIAN_POINT('',(1.7399,3.4798,4.572));
#297 = LINE('',#298,#299);
#298 = CARTESIAN_POINT('',(2.280285,3.4798,4.572));
#299 = VECTOR('',#300,1.);
#300 = DIRECTION('',(-1.,0.,0.));
#301 = ORIENTED_EDGE('',*,*,#302,.F.);
#302 = EDGE_CURVE('',#303,#295,#305,.T.);
#303 = VERTEX_POINT('',#304);
#304 = CARTESIAN_POINT('',(1.7399,3.4798,1.27));
#305 = LINE('',#306,#307);
#306 = CARTESIAN_POINT('',(1.7399,3.4798,0.635));
#307 = VECTOR('',#308,1.);
#308 = DIRECTION('',(0.,0.,1.));
#309 = ORIENTED_EDGE('',*,*,#310,.F.);
#310 = EDGE_CURVE('',#287,#303,#311,.T.);
#311 = LINE('',#312,#313);
#312 = CARTESIAN_POINT('',(1.810385,3.4798,1.27));
#313 = VECTOR('',#314,1.);
#314 = DIRECTION('',(1.,0.,0.));
#315 = FACE_BOUND('',#316,.F.);
#316 = EDGE_LOOP('',(#317,#327,#335,#343));
#317 = ORIENTED_EDGE('',*,*,#318,.F.);
#318 = EDGE_CURVE('',#319,#321,#323,.T.);
#319 = VERTEX_POINT('',#320);
#320 = CARTESIAN_POINT('',(-1.7399,3.4798,4.572));
#321 = VERTEX_POINT('',#322);
#322 = CARTESIAN_POINT('',(-1.7399,3.4798,1.27));
#323 = LINE('',#324,#325);
#324 = CARTESIAN_POINT('',(-1.7399,3.4798,2.286));
#325 = VECTOR('',#326,1.);
#326 = DIRECTION('',(0.,0.,-1.));
#327 = ORIENTED_EDGE('',*,*,#328,.F.);
#328 = EDGE_CURVE('',#329,#319,#331,.T.);
#329 = VERTEX_POINT('',#330);
#330 = CARTESIAN_POINT('',(-0.8001,3.4798,4.572));
#331 = LINE('',#332,#333);
#332 = CARTESIAN_POINT('',(1.010285,3.4798,4.572));
#333 = VECTOR('',#334,1.);
#334 = DIRECTION('',(-1.,0.,0.));
#335 = ORIENTED_EDGE('',*,*,#336,.F.);
#336 = EDGE_CURVE('',#337,#329,#339,.T.);
#337 = VERTEX_POINT('',#338);
#338 = CARTESIAN_POINT('',(-0.8001,3.4798,1.27));
#339 = LINE('',#340,#341);
#340 = CARTESIAN_POINT('',(-0.8001,3.4798,0.635));
#341 = VECTOR('',#342,1.);
#342 = DIRECTION('',(0.,0.,1.));
#343 = ORIENTED_EDGE('',*,*,#344,.F.);
#344 = EDGE_CURVE('',#321,#337,#345,.T.);
#345 = LINE('',#346,#347);
#346 = CARTESIAN_POINT('',(0.540385,3.4798,1.27));
#347 = VECTOR('',#348,1.);
#348 = DIRECTION('',(1.,0.,0.));
#349 = PLANE('',#350);
#350 = AXIS2_PLACEMENT_3D('',#351,#352,#353);
#351 = CARTESIAN_POINT('',(2.82067,3.4798,0.));
#352 = DIRECTION('',(0.,-1.,0.));
#353 = DIRECTION('',(-1.,0.,0.));
#354 = ADVANCED_FACE('',(#355),#396,.F.);
#355 = FACE_BOUND('',#356,.F.);
#356 = EDGE_LOOP('',(#357,#358,#359,#367,#373,#374,#382,#390));
#357 = ORIENTED_EDGE('',*,*,#31,.F.);
#358 = ORIENTED_EDGE('',*,*,#251,.T.);
#359 = ORIENTED_EDGE('',*,*,#360,.T.);
#360 = EDGE_CURVE('',#244,#361,#363,.T.);
#361 = VERTEX_POINT('',#362);
#362 = CARTESIAN_POINT('',(2.82067,-1.6002,12.95));
#363 = LINE('',#364,#365);
#364 = CARTESIAN_POINT('',(-2.82067,-1.6002,12.95));
#365 = VECTOR('',#366,1.);
#366 = DIRECTION('',(1.,0.,0.));
#367 = ORIENTED_EDGE('',*,*,#368,.F.);
#368 = EDGE_CURVE('',#48,#361,#369,.T.);
#369 = LINE('',#370,#371);
#370 = CARTESIAN_POINT('',(2.82067,-1.6002,0.));
#371 = VECTOR('',#372,1.);
#372 = DIRECTION('',(0.,0.,1.));
#373 = ORIENTED_EDGE('',*,*,#47,.F.);
#374 = ORIENTED_EDGE('',*,*,#375,.F.);
#375 = EDGE_CURVE('',#376,#40,#378,.T.);
#376 = VERTEX_POINT('',#377);
#377 = CARTESIAN_POINT('',(2.54,-1.6002,2.159));
#378 = LINE('',#379,#380);
#379 = CARTESIAN_POINT('',(2.54,-1.6002,2.159));
#380 = VECTOR('',#381,1.);
#381 = DIRECTION('',(0.,0.,-1.));
#382 = ORIENTED_EDGE('',*,*,#383,.F.);
#383 = EDGE_CURVE('',#384,#376,#386,.T.);
#384 = VERTEX_POINT('',#385);
#385 = CARTESIAN_POINT('',(-2.54,-1.6002,2.159));
#386 = LINE('',#387,#388);
#387 = CARTESIAN_POINT('',(-2.54,-1.6002,2.159));
#388 = VECTOR('',#389,1.);
#389 = DIRECTION('',(1.,0.,0.));
#390 = ORIENTED_EDGE('',*,*,#391,.T.);
#391 = EDGE_CURVE('',#384,#32,#392,.T.);
#392 = LINE('',#393,#394);
#393 = CARTESIAN_POINT('',(-2.54,-1.6002,2.159));
#394 = VECTOR('',#395,1.);
#395 = DIRECTION('',(0.,0.,-1.));
#396 = PLANE('',#397);
#397 = AXIS2_PLACEMENT_3D('',#398,#399,#400);
#398 = CARTESIAN_POINT('',(-2.82067,-1.6002,0.));
#399 = DIRECTION('',(0.,1.,0.));
#400 = DIRECTION('',(1.,0.,0.));
#401 = ADVANCED_FACE('',(#402),#413,.F.);
#402 = FACE_BOUND('',#403,.F.);
#403 = EDGE_LOOP('',(#404,#405,#411,#412));
#404 = ORIENTED_EDGE('',*,*,#368,.T.);
#405 = ORIENTED_EDGE('',*,*,#406,.T.);
#406 = EDGE_CURVE('',#361,#267,#407,.T.);
#407 = LINE('',#408,#409);
#408 = CARTESIAN_POINT('',(2.82067,-1.6002,12.95));
#409 = VECTOR('',#410,1.);
#410 = DIRECTION('',(0.,1.,0.));
#411 = ORIENTED_EDGE('',*,*,#266,.F.);
#412 = ORIENTED_EDGE('',*,*,#55,.F.);
#413 = PLANE('',#414);
#414 = AXIS2_PLACEMENT_3D('',#415,#416,#417);
#415 = CARTESIAN_POINT('',(2.82067,-1.6002,0.));
#416 = DIRECTION('',(-1.,0.,0.));
#417 = DIRECTION('',(0.,1.,0.));
#418 = ADVANCED_FACE('',(#419),#444,.T.);
#419 = FACE_BOUND('',#420,.T.);
#420 = EDGE_LOOP('',(#421,#422,#430,#438));
#421 = ORIENTED_EDGE('',*,*,#39,.T.);
#422 = ORIENTED_EDGE('',*,*,#423,.T.);
#423 = EDGE_CURVE('',#40,#424,#426,.T.);
#424 = VERTEX_POINT('',#425);
#425 = CARTESIAN_POINT('',(2.54,-2.2606,2.159));
#426 = LINE('',#427,#428);
#427 = CARTESIAN_POINT('',(2.54,-1.6002,0.));
#428 = VECTOR('',#429,1.);
#429 = DIRECTION('',(0.,-0.292504341894,0.956264194652));
#430 = ORIENTED_EDGE('',*,*,#431,.F.);
#431 = EDGE_CURVE('',#432,#424,#434,.T.);
#432 = VERTEX_POINT('',#433);
#433 = CARTESIAN_POINT('',(-2.54,-2.2606,2.159));
#434 = LINE('',#435,#436);
#435 = CARTESIAN_POINT('',(-2.54,-2.2606,2.159));
#436 = VECTOR('',#437,1.);
#437 = DIRECTION('',(1.,0.,0.));
#438 = ORIENTED_EDGE('',*,*,#439,.F.);
#439 = EDGE_CURVE('',#32,#432,#440,.T.);
#440 = LINE('',#441,#442);
#441 = CARTESIAN_POINT('',(-2.54,-1.6002,0.));
#442 = VECTOR('',#443,1.);
#443 = DIRECTION('',(0.,-0.292504341894,0.956264194652));
#444 = PLANE('',#445);
#445 = AXIS2_PLACEMENT_3D('',#446,#447,#448);
#446 = CARTESIAN_POINT('',(-2.54,-1.6002,0.));
#447 = DIRECTION('',(0.,-0.956264194652,-0.292504341894));
#448 = DIRECTION('',(0.,-0.292504341894,0.956264194652));
#449 = ADVANCED_FACE('',(#450),#475,.T.);
#450 = FACE_BOUND('',#451,.F.);
#451 = EDGE_LOOP('',(#452,#460,#461,#469));
#452 = ORIENTED_EDGE('',*,*,#453,.F.);
#453 = EDGE_CURVE('',#72,#454,#456,.T.);
#454 = VERTEX_POINT('',#455);
#455 = CARTESIAN_POINT('',(-0.8255,0.4445,0.386473690001));
#456 = LINE('',#457,#458);
#457 = CARTESIAN_POINT('',(-0.830941451734,0.439058548266,0.394753130673
    ));
#458 = VECTOR('',#459,1.);
#459 = DIRECTION('',(-0.481397520338,-0.481397520338,0.73247037812));
#460 = ORIENTED_EDGE('',*,*,#71,.T.);
#461 = ORIENTED_EDGE('',*,*,#462,.T.);
#462 = EDGE_CURVE('',#74,#463,#465,.T.);
#463 = VERTEX_POINT('',#464);
#464 = CARTESIAN_POINT('',(-1.7145,0.4445,0.386473690001));
#465 = LINE('',#466,#467);
#466 = CARTESIAN_POINT('',(-1.709058548266,0.439058548266,0.394753130673
    ));
#467 = VECTOR('',#468,1.);
#468 = DIRECTION('',(0.481397520338,-0.481397520338,0.73247037812));
#469 = ORIENTED_EDGE('',*,*,#470,.F.);
#470 = EDGE_CURVE('',#454,#463,#471,.T.);
#471 = LINE('',#472,#473);
#472 = CARTESIAN_POINT('',(-0.8255,0.4445,0.386473690001));
#473 = VECTOR('',#474,1.);
#474 = DIRECTION('',(-1.,0.,0.));
#475 = PLANE('',#476);
#476 = AXIS2_PLACEMENT_3D('',#477,#478,#479);
#477 = CARTESIAN_POINT('',(-0.8255,0.5715,0.193236845001));
#478 = DIRECTION('',(0.,-0.835674143418,-0.549225569346));
#479 = DIRECTION('',(1.,0.,0.));
#480 = ADVANCED_FACE('',(#481),#499,.T.);
#481 = FACE_BOUND('',#482,.F.);
#482 = EDGE_LOOP('',(#483,#491,#492,#493));
#483 = ORIENTED_EDGE('',*,*,#484,.F.);
#484 = EDGE_CURVE('',#82,#485,#487,.T.);
#485 = VERTEX_POINT('',#486);
#486 = CARTESIAN_POINT('',(-0.8255,-0.4445,0.386473690001));
#487 = LINE('',#488,#489);
#488 = CARTESIAN_POINT('',(-0.830941451734,-0.439058548266,
    0.394753130673));
#489 = VECTOR('',#490,1.);
#490 = DIRECTION('',(-0.481397520338,0.481397520338,0.73247037812));
#491 = ORIENTED_EDGE('',*,*,#81,.T.);
#492 = ORIENTED_EDGE('',*,*,#453,.T.);
#493 = ORIENTED_EDGE('',*,*,#494,.F.);
#494 = EDGE_CURVE('',#485,#454,#495,.T.);
#495 = LINE('',#496,#497);
#496 = CARTESIAN_POINT('',(-0.8255,-0.4445,0.386473690001));
#497 = VECTOR('',#498,1.);
#498 = DIRECTION('',(0.,1.,0.));
#499 = PLANE('',#500);
#500 = AXIS2_PLACEMENT_3D('',#501,#502,#503);
#501 = CARTESIAN_POINT('',(-0.6985,-0.4445,0.193236845001));
#502 = DIRECTION('',(-0.835674143418,-3.473155160621E-18,-0.549225569346
    ));
#503 = DIRECTION('',(2.902425963808E-18,-1.,1.907545620518E-18));
#504 = ADVANCED_FACE('',(#505),#523,.T.);
#505 = FACE_BOUND('',#506,.F.);
#506 = EDGE_LOOP('',(#507,#508,#509,#517));
#507 = ORIENTED_EDGE('',*,*,#462,.F.);
#508 = ORIENTED_EDGE('',*,*,#97,.T.);
#509 = ORIENTED_EDGE('',*,*,#510,.T.);
#510 = EDGE_CURVE('',#90,#511,#513,.T.);
#511 = VERTEX_POINT('',#512);
#512 = CARTESIAN_POINT('',(-1.7145,-0.4445,0.386473690001));
#513 = LINE('',#514,#515);
#514 = CARTESIAN_POINT('',(-1.709058548266,-0.439058548266,
    0.394753130673));
#515 = VECTOR('',#516,1.);
#516 = DIRECTION('',(0.481397520338,0.481397520338,0.73247037812));
#517 = ORIENTED_EDGE('',*,*,#518,.F.);
#518 = EDGE_CURVE('',#463,#511,#519,.T.);
#519 = LINE('',#520,#521);
#520 = CARTESIAN_POINT('',(-1.7145,0.4445,0.386473690001));
#521 = VECTOR('',#522,1.);
#522 = DIRECTION('',(0.,-1.,0.));
#523 = PLANE('',#524);
#524 = AXIS2_PLACEMENT_3D('',#525,#526,#527);
#525 = CARTESIAN_POINT('',(-1.8415,0.4445,0.193236845001));
#526 = DIRECTION('',(0.835674143418,3.473155160621E-18,-0.549225569346)
  );
#527 = DIRECTION('',(-2.902425963808E-18,1.,1.907545620518E-18));
#528 = ADVANCED_FACE('',(#529),#540,.T.);
#529 = FACE_BOUND('',#530,.F.);
#530 = EDGE_LOOP('',(#531,#532,#533,#534));
#531 = ORIENTED_EDGE('',*,*,#510,.F.);
#532 = ORIENTED_EDGE('',*,*,#89,.T.);
#533 = ORIENTED_EDGE('',*,*,#484,.T.);
#534 = ORIENTED_EDGE('',*,*,#535,.F.);
#535 = EDGE_CURVE('',#511,#485,#536,.T.);
#536 = LINE('',#537,#538);
#537 = CARTESIAN_POINT('',(-1.7145,-0.4445,0.386473690001));
#538 = VECTOR('',#539,1.);
#539 = DIRECTION('',(1.,0.,0.));
#540 = PLANE('',#541);
#541 = AXIS2_PLACEMENT_3D('',#542,#543,#544);
#542 = CARTESIAN_POINT('',(-1.7145,-0.5715,0.193236845001));
#543 = DIRECTION('',(-3.473155160621E-18,0.835674143418,-0.549225569346)
  );
#544 = DIRECTION('',(-1.,-2.902425963808E-18,1.907545620518E-18));
#545 = ADVANCED_FACE('',(#546),#571,.T.);
#546 = FACE_BOUND('',#547,.F.);
#547 = EDGE_LOOP('',(#548,#556,#557,#565));
#548 = ORIENTED_EDGE('',*,*,#549,.F.);
#549 = EDGE_CURVE('',#106,#550,#552,.T.);
#550 = VERTEX_POINT('',#551);
#551 = CARTESIAN_POINT('',(1.7145,-0.4445,0.386473690001));
#552 = LINE('',#553,#554);
#553 = CARTESIAN_POINT('',(1.709058548266,-0.439058548266,0.394753130673
    ));
#554 = VECTOR('',#555,1.);
#555 = DIRECTION('',(-0.481397520338,0.481397520338,0.73247037812));
#556 = ORIENTED_EDGE('',*,*,#105,.T.);
#557 = ORIENTED_EDGE('',*,*,#558,.T.);
#558 = EDGE_CURVE('',#108,#559,#561,.T.);
#559 = VERTEX_POINT('',#560);
#560 = CARTESIAN_POINT('',(1.7145,0.4445,0.386473690001));
#561 = LINE('',#562,#563);
#562 = CARTESIAN_POINT('',(1.709058548266,0.439058548266,0.394753130673)
  );
#563 = VECTOR('',#564,1.);
#564 = DIRECTION('',(-0.481397520338,-0.481397520338,0.73247037812));
#565 = ORIENTED_EDGE('',*,*,#566,.F.);
#566 = EDGE_CURVE('',#550,#559,#567,.T.);
#567 = LINE('',#568,#569);
#568 = CARTESIAN_POINT('',(1.7145,-0.4445,0.386473690001));
#569 = VECTOR('',#570,1.);
#570 = DIRECTION('',(0.,1.,0.));
#571 = PLANE('',#572);
#572 = AXIS2_PLACEMENT_3D('',#573,#574,#575);
#573 = CARTESIAN_POINT('',(1.8415,-0.4445,0.193236845001));
#574 = DIRECTION('',(-0.835674143418,-3.473155160621E-18,-0.549225569346
    ));
#575 = DIRECTION('',(2.902425963808E-18,-1.,1.907545620518E-18));
#576 = ADVANCED_FACE('',(#577),#595,.T.);
#577 = FACE_BOUND('',#578,.F.);
#578 = EDGE_LOOP('',(#579,#587,#588,#589));
#579 = ORIENTED_EDGE('',*,*,#580,.F.);
#580 = EDGE_CURVE('',#116,#581,#583,.T.);
#581 = VERTEX_POINT('',#582);
#582 = CARTESIAN_POINT('',(0.8255,-0.4445,0.386473690001));
#583 = LINE('',#584,#585);
#584 = CARTESIAN_POINT('',(0.830941451734,-0.439058548266,0.394753130673
    ));
#585 = VECTOR('',#586,1.);
#586 = DIRECTION('',(0.481397520338,0.481397520338,0.73247037812));
#587 = ORIENTED_EDGE('',*,*,#115,.T.);
#588 = ORIENTED_EDGE('',*,*,#549,.T.);
#589 = ORIENTED_EDGE('',*,*,#590,.F.);
#590 = EDGE_CURVE('',#581,#550,#591,.T.);
#591 = LINE('',#592,#593);
#592 = CARTESIAN_POINT('',(0.8255,-0.4445,0.386473690001));
#593 = VECTOR('',#594,1.);
#594 = DIRECTION('',(1.,0.,0.));
#595 = PLANE('',#596);
#596 = AXIS2_PLACEMENT_3D('',#597,#598,#599);
#597 = CARTESIAN_POINT('',(0.8255,-0.5715,0.193236845001));
#598 = DIRECTION('',(-3.473155160621E-18,0.835674143418,-0.549225569346)
  );
#599 = DIRECTION('',(-1.,-2.902425963808E-18,1.907545620518E-18));
#600 = ADVANCED_FACE('',(#601),#619,.T.);
#601 = FACE_BOUND('',#602,.F.);
#602 = EDGE_LOOP('',(#603,#604,#605,#613));
#603 = ORIENTED_EDGE('',*,*,#558,.F.);
#604 = ORIENTED_EDGE('',*,*,#131,.T.);
#605 = ORIENTED_EDGE('',*,*,#606,.T.);
#606 = EDGE_CURVE('',#124,#607,#609,.T.);
#607 = VERTEX_POINT('',#608);
#608 = CARTESIAN_POINT('',(0.8255,0.4445,0.386473690001));
#609 = LINE('',#610,#611);
#610 = CARTESIAN_POINT('',(0.830941451734,0.439058548266,0.394753130673)
  );
#611 = VECTOR('',#612,1.);
#612 = DIRECTION('',(0.481397520338,-0.481397520338,0.73247037812));
#613 = ORIENTED_EDGE('',*,*,#614,.F.);
#614 = EDGE_CURVE('',#559,#607,#615,.T.);
#615 = LINE('',#616,#617);
#616 = CARTESIAN_POINT('',(1.7145,0.4445,0.386473690001));
#617 = VECTOR('',#618,1.);
#618 = DIRECTION('',(-1.,0.,0.));
#619 = PLANE('',#620);
#620 = AXIS2_PLACEMENT_3D('',#621,#622,#623);
#621 = CARTESIAN_POINT('',(1.7145,0.5715,0.193236845001));
#622 = DIRECTION('',(0.,-0.835674143418,-0.549225569346));
#623 = DIRECTION('',(1.,0.,0.));
#624 = ADVANCED_FACE('',(#625),#636,.T.);
#625 = FACE_BOUND('',#626,.F.);
#626 = EDGE_LOOP('',(#627,#628,#629,#630));
#627 = ORIENTED_EDGE('',*,*,#606,.F.);
#628 = ORIENTED_EDGE('',*,*,#123,.T.);
#629 = ORIENTED_EDGE('',*,*,#580,.T.);
#630 = ORIENTED_EDGE('',*,*,#631,.F.);
#631 = EDGE_CURVE('',#607,#581,#632,.T.);
#632 = LINE('',#633,#634);
#633 = CARTESIAN_POINT('',(0.8255,0.4445,0.386473690001));
#634 = VECTOR('',#635,1.);
#635 = DIRECTION('',(0.,-1.,0.));
#636 = PLANE('',#637);
#637 = AXIS2_PLACEMENT_3D('',#638,#639,#640);
#638 = CARTESIAN_POINT('',(0.6985,0.4445,0.193236845001));
#639 = DIRECTION('',(0.835674143418,3.473155160621E-18,-0.549225569346)
  );
#640 = DIRECTION('',(-2.902425963808E-18,1.,1.907545620518E-18));
#641 = ADVANCED_FACE('',(#642),#667,.T.);
#642 = FACE_BOUND('',#643,.T.);
#643 = EDGE_LOOP('',(#644,#652,#660,#666));
#644 = ORIENTED_EDGE('',*,*,#645,.T.);
#645 = EDGE_CURVE('',#140,#646,#648,.T.);
#646 = VERTEX_POINT('',#647);
#647 = CARTESIAN_POINT('',(-1.509202232143,2.452914285714,2.54E-02));
#648 = LINE('',#649,#650);
#649 = CARTESIAN_POINT('',(-1.509202232143,2.452914285714,
    1.066492412515E-17));
#650 = VECTOR('',#651,1.);
#651 = DIRECTION('',(0.,1.224646799147E-16,1.));
#652 = ORIENTED_EDGE('',*,*,#653,.T.);
#653 = EDGE_CURVE('',#646,#654,#656,.T.);
#654 = VERTEX_POINT('',#655);
#655 = CARTESIAN_POINT('',(-1.340813839286,2.452914285714,2.54E-02));
#656 = LINE('',#657,#658);
#657 = CARTESIAN_POINT('',(-1.509202232143,2.452914285714,2.54E-02));
#658 = VECTOR('',#659,1.);
#659 = DIRECTION('',(1.,0.,0.));
#660 = ORIENTED_EDGE('',*,*,#661,.F.);
#661 = EDGE_CURVE('',#142,#654,#662,.T.);
#662 = LINE('',#663,#664);
#663 = CARTESIAN_POINT('',(-1.340813839286,2.452914285714,
    1.066492412515E-17));
#664 = VECTOR('',#665,1.);
#665 = DIRECTION('',(0.,1.224646799147E-16,1.));
#666 = ORIENTED_EDGE('',*,*,#139,.F.);
#667 = PLANE('',#668);
#668 = AXIS2_PLACEMENT_3D('',#669,#670,#671);
#669 = CARTESIAN_POINT('',(-1.509202232143,2.452914285714,
    1.066492412515E-17));
#670 = DIRECTION('',(0.,1.,-1.224646799147E-16));
#671 = DIRECTION('',(1.,0.,0.));
#672 = ADVANCED_FACE('',(#673),#691,.T.);
#673 = FACE_BOUND('',#674,.T.);
#674 = EDGE_LOOP('',(#675,#676,#684,#690));
#675 = ORIENTED_EDGE('',*,*,#661,.T.);
#676 = ORIENTED_EDGE('',*,*,#677,.T.);
#677 = EDGE_CURVE('',#654,#678,#680,.T.);
#678 = VERTEX_POINT('',#679);
#679 = CARTESIAN_POINT('',(-1.340813839286,1.871617142857,2.54E-02));
#680 = LINE('',#681,#682);
#681 = CARTESIAN_POINT('',(-1.340813839286,2.452914285714,2.54E-02));
#682 = VECTOR('',#683,1.);
#683 = DIRECTION('',(0.,-1.,1.224646799147E-16));
#684 = ORIENTED_EDGE('',*,*,#685,.F.);
#685 = EDGE_CURVE('',#214,#678,#686,.T.);
#686 = LINE('',#687,#688);
#687 = CARTESIAN_POINT('',(-1.340813839286,1.871617142857,
    8.18532926605E-17));
#688 = VECTOR('',#689,1.);
#689 = DIRECTION('',(0.,1.224646799147E-16,1.));
#690 = ORIENTED_EDGE('',*,*,#221,.F.);
#691 = PLANE('',#692);
#692 = AXIS2_PLACEMENT_3D('',#693,#694,#695);
#693 = CARTESIAN_POINT('',(-1.340813839286,2.452914285714,
    1.066492412515E-17));
#694 = DIRECTION('',(1.,0.,0.));
#695 = DIRECTION('',(0.,-1.,1.224646799147E-16));
#696 = ADVANCED_FACE('',(#697),#715,.T.);
#697 = FACE_BOUND('',#698,.T.);
#698 = EDGE_LOOP('',(#699,#700,#708,#714));
#699 = ORIENTED_EDGE('',*,*,#685,.T.);
#700 = ORIENTED_EDGE('',*,*,#701,.T.);
#701 = EDGE_CURVE('',#678,#702,#704,.T.);
#702 = VERTEX_POINT('',#703);
#703 = CARTESIAN_POINT('',(-1.524,1.908628571429,2.54E-02));
#704 = LINE('',#705,#706);
#705 = CARTESIAN_POINT('',(-1.340813839286,1.871617142857,2.54E-02));
#706 = VECTOR('',#707,1.);
#707 = DIRECTION('',(-0.980193737099,0.198041000179,-2.425302769691E-17)
  );
#708 = ORIENTED_EDGE('',*,*,#709,.F.);
#709 = EDGE_CURVE('',#206,#702,#710,.T.);
#710 = LINE('',#711,#712);
#711 = CARTESIAN_POINT('',(-1.524,1.908628571429,7.732069990731E-17));
#712 = VECTOR('',#713,1.);
#713 = DIRECTION('',(0.,1.224646799147E-16,1.));
#714 = ORIENTED_EDGE('',*,*,#213,.F.);
#715 = PLANE('',#716);
#716 = AXIS2_PLACEMENT_3D('',#717,#718,#719);
#717 = CARTESIAN_POINT('',(-1.340813839286,1.871617142857,
    8.18532926605E-17));
#718 = DIRECTION('',(-0.198041000179,-0.980193737099,1.200391122683E-16)
  );
#719 = DIRECTION('',(-0.980193737099,0.198041000179,-2.425302769691E-17)
  );
#720 = ADVANCED_FACE('',(#721),#739,.T.);
#721 = FACE_BOUND('',#722,.T.);
#722 = EDGE_LOOP('',(#723,#724,#732,#738));
#723 = ORIENTED_EDGE('',*,*,#709,.T.);
#724 = ORIENTED_EDGE('',*,*,#725,.T.);
#725 = EDGE_CURVE('',#702,#726,#728,.T.);
#726 = VERTEX_POINT('',#727);
#727 = CARTESIAN_POINT('',(-1.524,1.815011428571,2.54E-02));
#728 = LINE('',#729,#730);
#729 = CARTESIAN_POINT('',(-1.524,1.908628571429,2.54E-02));
#730 = VECTOR('',#731,1.);
#731 = DIRECTION('',(0.,-1.,1.224646799147E-16));
#732 = ORIENTED_EDGE('',*,*,#733,.F.);
#733 = EDGE_CURVE('',#198,#726,#734,.T.);
#734 = LINE('',#735,#736);
#735 = CARTESIAN_POINT('',(-1.524,1.815011428571,8.878549334184E-17));
#736 = VECTOR('',#737,1.);
#737 = DIRECTION('',(0.,1.224646799147E-16,1.));
#738 = ORIENTED_EDGE('',*,*,#205,.F.);
#739 = PLANE('',#740);
#740 = AXIS2_PLACEMENT_3D('',#741,#742,#743);
#741 = CARTESIAN_POINT('',(-1.524,1.908628571429,7.732069990731E-17));
#742 = DIRECTION('',(1.,0.,0.));
#743 = DIRECTION('',(0.,-1.,1.224646799147E-16));
#744 = ADVANCED_FACE('',(#745),#763,.T.);
#745 = FACE_BOUND('',#746,.T.);
#746 = EDGE_LOOP('',(#747,#748,#756,#762));
#747 = ORIENTED_EDGE('',*,*,#733,.T.);
#748 = ORIENTED_EDGE('',*,*,#749,.T.);
#749 = EDGE_CURVE('',#726,#750,#752,.T.);
#750 = VERTEX_POINT('',#751);
#751 = CARTESIAN_POINT('',(-1.341834375,1.778,2.54E-02));
#752 = LINE('',#753,#754);
#753 = CARTESIAN_POINT('',(-1.524,1.815011428571,2.54E-02));
#754 = VECTOR('',#755,1.);
#755 = DIRECTION('',(0.979977835814,-0.199106607911,2.438352700677E-17)
  );
#756 = ORIENTED_EDGE('',*,*,#757,.F.);
#757 = EDGE_CURVE('',#190,#750,#758,.T.);
#758 = LINE('',#759,#760);
#759 = CARTESIAN_POINT('',(-1.341834375,1.778,9.331808609503E-17));
#760 = VECTOR('',#761,1.);
#761 = DIRECTION('',(0.,1.224646799147E-16,1.));
#762 = ORIENTED_EDGE('',*,*,#197,.F.);
#763 = PLANE('',#764);
#764 = AXIS2_PLACEMENT_3D('',#765,#766,#767);
#765 = CARTESIAN_POINT('',(-1.524,1.815011428571,8.878549334184E-17));
#766 = DIRECTION('',(0.199106607911,0.979977835814,-1.200126719865E-16)
  );
#767 = DIRECTION('',(0.979977835814,-0.199106607911,2.438352700677E-17)
  );
#768 = ADVANCED_FACE('',(#769),#787,.T.);
#769 = FACE_BOUND('',#770,.T.);
#770 = EDGE_LOOP('',(#771,#772,#780,#786));
#771 = ORIENTED_EDGE('',*,*,#757,.T.);
#772 = ORIENTED_EDGE('',*,*,#773,.T.);
#773 = EDGE_CURVE('',#750,#774,#776,.T.);
#774 = VERTEX_POINT('',#775);
#775 = CARTESIAN_POINT('',(-1.238760267857,1.778,2.54E-02));
#776 = LINE('',#777,#778);
#777 = CARTESIAN_POINT('',(-1.341834375,1.778,2.54E-02));
#778 = VECTOR('',#779,1.);
#779 = DIRECTION('',(1.,0.,0.));
#780 = ORIENTED_EDGE('',*,*,#781,.F.);
#781 = EDGE_CURVE('',#182,#774,#782,.T.);
#782 = LINE('',#783,#784);
#783 = CARTESIAN_POINT('',(-1.238760267857,1.778,9.331808609503E-17));
#784 = VECTOR('',#785,1.);
#785 = DIRECTION('',(0.,1.224646799147E-16,1.));
#786 = ORIENTED_EDGE('',*,*,#189,.F.);
#787 = PLANE('',#788);
#788 = AXIS2_PLACEMENT_3D('',#789,#790,#791);
#789 = CARTESIAN_POINT('',(-1.341834375,1.778,9.331808609503E-17));
#790 = DIRECTION('',(0.,1.,-1.224646799147E-16));
#791 = DIRECTION('',(1.,0.,0.));
#792 = ADVANCED_FACE('',(#793),#811,.T.);
#793 = FACE_BOUND('',#794,.T.);
#794 = EDGE_LOOP('',(#795,#796,#804,#810));
#795 = ORIENTED_EDGE('',*,*,#781,.T.);
#796 = ORIENTED_EDGE('',*,*,#797,.T.);
#797 = EDGE_CURVE('',#774,#798,#800,.T.);
#798 = VERTEX_POINT('',#799);
#799 = CARTESIAN_POINT('',(-1.238760267857,2.452914285714,2.54E-02));
#800 = LINE('',#801,#802);
#801 = CARTESIAN_POINT('',(-1.238760267857,1.778,2.54E-02));
#802 = VECTOR('',#803,1.);
#803 = DIRECTION('',(0.,1.,-1.224646799147E-16));
#804 = ORIENTED_EDGE('',*,*,#805,.F.);
#805 = EDGE_CURVE('',#174,#798,#806,.T.);
#806 = LINE('',#807,#808);
#807 = CARTESIAN_POINT('',(-1.238760267857,2.452914285714,
    1.066492412515E-17));
#808 = VECTOR('',#809,1.);
#809 = DIRECTION('',(0.,1.224646799147E-16,1.));
#810 = ORIENTED_EDGE('',*,*,#181,.F.);
#811 = PLANE('',#812);
#812 = AXIS2_PLACEMENT_3D('',#813,#814,#815);
#813 = CARTESIAN_POINT('',(-1.238760267857,1.778,9.331808609503E-17));
#814 = DIRECTION('',(-1.,0.,0.));
#815 = DIRECTION('',(0.,1.,-1.224646799147E-16));
#816 = ADVANCED_FACE('',(#817),#835,.T.);
#817 = FACE_BOUND('',#818,.T.);
#818 = EDGE_LOOP('',(#819,#820,#828,#834));
#819 = ORIENTED_EDGE('',*,*,#805,.T.);
#820 = ORIENTED_EDGE('',*,*,#821,.T.);
#821 = EDGE_CURVE('',#798,#822,#824,.T.);
#822 = VERTEX_POINT('',#823);
#823 = CARTESIAN_POINT('',(-1.070371875,2.452914285714,2.54E-02));
#824 = LINE('',#825,#826);
#825 = CARTESIAN_POINT('',(-1.238760267857,2.452914285714,2.54E-02));
#826 = VECTOR('',#827,1.);
#827 = DIRECTION('',(1.,0.,0.));
#828 = ORIENTED_EDGE('',*,*,#829,.F.);
#829 = EDGE_CURVE('',#166,#822,#830,.T.);
#830 = LINE('',#831,#832);
#831 = CARTESIAN_POINT('',(-1.070371875,2.452914285714,
    1.066492412515E-17));
#832 = VECTOR('',#833,1.);
#833 = DIRECTION('',(0.,1.224646799147E-16,1.));
#834 = ORIENTED_EDGE('',*,*,#173,.F.);
#835 = PLANE('',#836);
#836 = AXIS2_PLACEMENT_3D('',#837,#838,#839);
#837 = CARTESIAN_POINT('',(-1.238760267857,2.452914285714,
    1.066492412515E-17));
#838 = DIRECTION('',(0.,1.,-1.224646799147E-16));
#839 = DIRECTION('',(1.,0.,0.));
#840 = ADVANCED_FACE('',(#841),#859,.T.);
#841 = FACE_BOUND('',#842,.T.);
#842 = EDGE_LOOP('',(#843,#844,#852,#858));
#843 = ORIENTED_EDGE('',*,*,#829,.T.);
#844 = ORIENTED_EDGE('',*,*,#845,.T.);
#845 = EDGE_CURVE('',#822,#846,#848,.T.);
#846 = VERTEX_POINT('',#847);
#847 = CARTESIAN_POINT('',(-1.070371875,2.54,2.54E-02));
#848 = LINE('',#849,#850);
#849 = CARTESIAN_POINT('',(-1.070371875,2.452914285714,2.54E-02));
#850 = VECTOR('',#851,1.);
#851 = DIRECTION('',(0.,1.,-1.224646799147E-16));
#852 = ORIENTED_EDGE('',*,*,#853,.F.);
#853 = EDGE_CURVE('',#158,#846,#854,.T.);
#854 = LINE('',#855,#856);
#855 = CARTESIAN_POINT('',(-1.070371875,2.54,0.));
#856 = VECTOR('',#857,1.);
#857 = DIRECTION('',(0.,1.224646799147E-16,1.));
#858 = ORIENTED_EDGE('',*,*,#165,.F.);
#859 = PLANE('',#860);
#860 = AXIS2_PLACEMENT_3D('',#861,#862,#863);
#861 = CARTESIAN_POINT('',(-1.070371875,2.452914285714,
    1.066492412515E-17));
#862 = DIRECTION('',(-1.,0.,0.));
#863 = DIRECTION('',(0.,1.,-1.224646799147E-16));
#864 = ADVANCED_FACE('',(#865),#883,.T.);
#865 = FACE_BOUND('',#866,.T.);
#866 = EDGE_LOOP('',(#867,#868,#876,#882));
#867 = ORIENTED_EDGE('',*,*,#853,.T.);
#868 = ORIENTED_EDGE('',*,*,#869,.T.);
#869 = EDGE_CURVE('',#846,#870,#872,.T.);
#870 = VERTEX_POINT('',#871);
#871 = CARTESIAN_POINT('',(-1.509202232143,2.54,2.54E-02));
#872 = LINE('',#873,#874);
#873 = CARTESIAN_POINT('',(-1.070371875,2.54,2.54E-02));
#874 = VECTOR('',#875,1.);
#875 = DIRECTION('',(-1.,-0.,0.));
#876 = ORIENTED_EDGE('',*,*,#877,.F.);
#877 = EDGE_CURVE('',#150,#870,#878,.T.);
#878 = LINE('',#879,#880);
#879 = CARTESIAN_POINT('',(-1.509202232143,2.54,0.));
#880 = VECTOR('',#881,1.);
#881 = DIRECTION('',(0.,1.224646799147E-16,1.));
#882 = ORIENTED_EDGE('',*,*,#157,.F.);
#883 = PLANE('',#884);
#884 = AXIS2_PLACEMENT_3D('',#885,#886,#887);
#885 = CARTESIAN_POINT('',(-1.070371875,2.54,0.));
#886 = DIRECTION('',(0.,-1.,1.224646799147E-16));
#887 = DIRECTION('',(-1.,0.,0.));
#888 = ADVANCED_FACE('',(#889),#900,.T.);
#889 = FACE_BOUND('',#890,.T.);
#890 = EDGE_LOOP('',(#891,#892,#898,#899));
#891 = ORIENTED_EDGE('',*,*,#877,.T.);
#892 = ORIENTED_EDGE('',*,*,#893,.T.);
#893 = EDGE_CURVE('',#870,#646,#894,.T.);
#894 = LINE('',#895,#896);
#895 = CARTESIAN_POINT('',(-1.509202232143,2.54,2.54E-02));
#896 = VECTOR('',#897,1.);
#897 = DIRECTION('',(0.,-1.,1.224646799147E-16));
#898 = ORIENTED_EDGE('',*,*,#645,.F.);
#899 = ORIENTED_EDGE('',*,*,#149,.F.);
#900 = PLANE('',#901);
#901 = AXIS2_PLACEMENT_3D('',#902,#903,#904);
#902 = CARTESIAN_POINT('',(-1.509202232143,2.54,0.));
#903 = DIRECTION('',(1.,0.,0.));
#904 = DIRECTION('',(0.,-1.,1.224646799147E-16));
#905 = ADVANCED_FACE('',(#906,#912,#978),#1044,.T.);
#906 = FACE_BOUND('',#907,.T.);
#907 = EDGE_LOOP('',(#908,#909,#910,#911));
#908 = ORIENTED_EDGE('',*,*,#243,.T.);
#909 = ORIENTED_EDGE('',*,*,#360,.T.);
#910 = ORIENTED_EDGE('',*,*,#406,.T.);
#911 = ORIENTED_EDGE('',*,*,#274,.T.);
#912 = FACE_BOUND('',#913,.T.);
#913 = EDGE_LOOP('',(#914,#924,#932,#940,#948,#956,#964,#972));
#914 = ORIENTED_EDGE('',*,*,#915,.T.);
#915 = EDGE_CURVE('',#916,#918,#920,.T.);
#916 = VERTEX_POINT('',#917);
#917 = CARTESIAN_POINT('',(-0.2,-0.8382,12.95));
#918 = VERTEX_POINT('',#919);
#919 = CARTESIAN_POINT('',(-2.34,-0.8382,12.95));
#920 = LINE('',#921,#922);
#921 = CARTESIAN_POINT('',(-1.E-01,-0.8382,12.95));
#922 = VECTOR('',#923,1.);
#923 = DIRECTION('',(-1.,0.,0.));
#924 = ORIENTED_EDGE('',*,*,#925,.T.);
#925 = EDGE_CURVE('',#918,#926,#928,.T.);
#926 = VERTEX_POINT('',#927);
#927 = CARTESIAN_POINT('',(-2.34,2.667,12.95));
#928 = LINE('',#929,#930);
#929 = CARTESIAN_POINT('',(-2.34,0.896192270283,12.95));
#930 = VECTOR('',#931,1.);
#931 = DIRECTION('',(0.,1.,0.));
#932 = ORIENTED_EDGE('',*,*,#933,.T.);
#933 = EDGE_CURVE('',#926,#934,#936,.T.);
#934 = VERTEX_POINT('',#935);
#935 = CARTESIAN_POINT('',(-1.7399,2.667,12.95));
#936 = LINE('',#937,#938);
#937 = CARTESIAN_POINT('',(-1.E-01,2.667,12.95));
#938 = VECTOR('',#939,1.);
#939 = DIRECTION('',(1.,0.,0.));
#940 = ORIENTED_EDGE('',*,*,#941,.T.);
#941 = EDGE_CURVE('',#934,#942,#944,.T.);
#942 = VERTEX_POINT('',#943);
#943 = CARTESIAN_POINT('',(-1.7399,2.921,12.95));
#944 = LINE('',#945,#946);
#945 = CARTESIAN_POINT('',(-1.7399,1.669989052383,12.95));
#946 = VECTOR('',#947,1.);
#947 = DIRECTION('',(0.,1.,0.));
#948 = ORIENTED_EDGE('',*,*,#949,.F.);
#949 = EDGE_CURVE('',#950,#942,#952,.T.);
#950 = VERTEX_POINT('',#951);
#951 = CARTESIAN_POINT('',(-0.8001,2.921,12.95));
#952 = LINE('',#953,#954);
#953 = CARTESIAN_POINT('',(-0.40005,2.921,12.95));
#954 = VECTOR('',#955,1.);
#955 = DIRECTION('',(-1.,0.,0.));
#956 = ORIENTED_EDGE('',*,*,#957,.F.);
#957 = EDGE_CURVE('',#958,#950,#960,.T.);
#958 = VERTEX_POINT('',#959);
#959 = CARTESIAN_POINT('',(-0.8001,2.667,12.95));
#960 = LINE('',#961,#962);
#961 = CARTESIAN_POINT('',(-0.8001,1.669989052383,12.95));
#962 = VECTOR('',#963,1.);
#963 = DIRECTION('',(0.,1.,0.));
#964 = ORIENTED_EDGE('',*,*,#965,.T.);
#965 = EDGE_CURVE('',#958,#966,#968,.T.);
#966 = VERTEX_POINT('',#967);
#967 = CARTESIAN_POINT('',(-0.2,2.667,12.95));
#968 = LINE('',#969,#970);
#969 = CARTESIAN_POINT('',(-1.E-01,2.667,12.95));
#970 = VECTOR('',#971,1.);
#971 = DIRECTION('',(1.,0.,0.));
#972 = ORIENTED_EDGE('',*,*,#973,.F.);
#973 = EDGE_CURVE('',#916,#966,#974,.T.);
#974 = LINE('',#975,#976);
#975 = CARTESIAN_POINT('',(-0.2,0.896192270283,12.95));
#976 = VECTOR('',#977,1.);
#977 = DIRECTION('',(0.,1.,0.));
#978 = FACE_BOUND('',#979,.T.);
#979 = EDGE_LOOP('',(#980,#990,#998,#1006,#1014,#1022,#1030,#1038));
#980 = ORIENTED_EDGE('',*,*,#981,.T.);
#981 = EDGE_CURVE('',#982,#984,#986,.T.);
#982 = VERTEX_POINT('',#983);
#983 = CARTESIAN_POINT('',(2.34,-0.8382,12.95));
#984 = VERTEX_POINT('',#985);
#985 = CARTESIAN_POINT('',(0.2,-0.8382,12.95));
#986 = LINE('',#987,#988);
#987 = CARTESIAN_POINT('',(1.17,-0.8382,12.95));
#988 = VECTOR('',#989,1.);
#989 = DIRECTION('',(-1.,0.,0.));
#990 = ORIENTED_EDGE('',*,*,#991,.T.);
#991 = EDGE_CURVE('',#984,#992,#994,.T.);
#992 = VERTEX_POINT('',#993);
#993 = CARTESIAN_POINT('',(0.2,2.667,12.95));
#994 = LINE('',#995,#996);
#995 = CARTESIAN_POINT('',(0.2,0.896192270283,12.95));
#996 = VECTOR('',#997,1.);
#997 = DIRECTION('',(0.,1.,0.));
#998 = ORIENTED_EDGE('',*,*,#999,.T.);
#999 = EDGE_CURVE('',#992,#1000,#1002,.T.);
#1000 = VERTEX_POINT('',#1001);
#1001 = CARTESIAN_POINT('',(0.8001,2.667,12.95));
#1002 = LINE('',#1003,#1004);
#1003 = CARTESIAN_POINT('',(1.17,2.667,12.95));
#1004 = VECTOR('',#1005,1.);
#1005 = DIRECTION('',(1.,0.,0.));
#1006 = ORIENTED_EDGE('',*,*,#1007,.T.);
#1007 = EDGE_CURVE('',#1000,#1008,#1010,.T.);
#1008 = VERTEX_POINT('',#1009);
#1009 = CARTESIAN_POINT('',(0.8001,2.921,12.95));
#1010 = LINE('',#1011,#1012);
#1011 = CARTESIAN_POINT('',(0.8001,1.669989052383,12.95));
#1012 = VECTOR('',#1013,1.);
#1013 = DIRECTION('',(0.,1.,0.));
#1014 = ORIENTED_EDGE('',*,*,#1015,.F.);
#1015 = EDGE_CURVE('',#1016,#1008,#1018,.T.);
#1016 = VERTEX_POINT('',#1017);
#1017 = CARTESIAN_POINT('',(1.7399,2.921,12.95));
#1018 = LINE('',#1019,#1020);
#1019 = CARTESIAN_POINT('',(0.86995,2.921,12.95));
#1020 = VECTOR('',#1021,1.);
#1021 = DIRECTION('',(-1.,0.,0.));
#1022 = ORIENTED_EDGE('',*,*,#1023,.F.);
#1023 = EDGE_CURVE('',#1024,#1016,#1026,.T.);
#1024 = VERTEX_POINT('',#1025);
#1025 = CARTESIAN_POINT('',(1.7399,2.667,12.95));
#1026 = LINE('',#1027,#1028);
#1027 = CARTESIAN_POINT('',(1.7399,1.669989052383,12.95));
#1028 = VECTOR('',#1029,1.);
#1029 = DIRECTION('',(0.,1.,0.));
#1030 = ORIENTED_EDGE('',*,*,#1031,.T.);
#1031 = EDGE_CURVE('',#1024,#1032,#1034,.T.);
#1032 = VERTEX_POINT('',#1033);
#1033 = CARTESIAN_POINT('',(2.34,2.667,12.95));
#1034 = LINE('',#1035,#1036);
#1035 = CARTESIAN_POINT('',(1.17,2.667,12.95));
#1036 = VECTOR('',#1037,1.);
#1037 = DIRECTION('',(1.,0.,0.));
#1038 = ORIENTED_EDGE('',*,*,#1039,.F.);
#1039 = EDGE_CURVE('',#982,#1032,#1040,.T.);
#1040 = LINE('',#1041,#1042);
#1041 = CARTESIAN_POINT('',(2.34,0.896192270283,12.95));
#1042 = VECTOR('',#1043,1.);
#1043 = DIRECTION('',(0.,1.,0.));
#1044 = PLANE('',#1045);
#1045 = AXIS2_PLACEMENT_3D('',#1046,#1047,#1048);
#1046 = CARTESIAN_POINT('',(8.284210926061E-17,0.9398,12.95));
#1047 = DIRECTION('',(0.,0.,1.));
#1048 = DIRECTION('',(1.,0.,0.));
#1049 = ADVANCED_FACE('',(#1050),#1075,.F.);
#1050 = FACE_BOUND('',#1051,.F.);
#1051 = EDGE_LOOP('',(#1052,#1062,#1068,#1069));
#1052 = ORIENTED_EDGE('',*,*,#1053,.F.);
#1053 = EDGE_CURVE('',#1054,#1056,#1058,.T.);
#1054 = VERTEX_POINT('',#1055);
#1055 = CARTESIAN_POINT('',(0.8001,2.413,4.572));
#1056 = VERTEX_POINT('',#1057);
#1057 = CARTESIAN_POINT('',(0.8001,2.413,1.27));
#1058 = LINE('',#1059,#1060);
#1059 = CARTESIAN_POINT('',(0.8001,2.413,7.65429));
#1060 = VECTOR('',#1061,1.);
#1061 = DIRECTION('',(-0.,-0.,-1.));
#1062 = ORIENTED_EDGE('',*,*,#1063,.T.);
#1063 = EDGE_CURVE('',#1054,#285,#1064,.T.);
#1064 = LINE('',#1065,#1066);
#1065 = CARTESIAN_POINT('',(0.8001,1.015187933717E-15,4.572));
#1066 = VECTOR('',#1067,1.);
#1067 = DIRECTION('',(0.,1.,-2.22044604925E-16));
#1068 = ORIENTED_EDGE('',*,*,#284,.T.);
#1069 = ORIENTED_EDGE('',*,*,#1070,.F.);
#1070 = EDGE_CURVE('',#1056,#287,#1071,.T.);
#1071 = LINE('',#1072,#1073);
#1072 = CARTESIAN_POINT('',(0.8001,2.819966482548E-16,1.27));
#1073 = VECTOR('',#1074,1.);
#1074 = DIRECTION('',(0.,1.,-2.22044604925E-16));
#1075 = PLANE('',#1076);
#1076 = AXIS2_PLACEMENT_3D('',#1077,#1078,#1079);
#1077 = CARTESIAN_POINT('',(0.8001,1.015187933717E-15,4.572));
#1078 = DIRECTION('',(-1.,0.,0.));
#1079 = DIRECTION('',(0.,-2.22044604925E-16,-1.));
#1080 = ADVANCED_FACE('',(#1081),#1099,.F.);
#1081 = FACE_BOUND('',#1082,.F.);
#1082 = EDGE_LOOP('',(#1083,#1091,#1092,#1093));
#1083 = ORIENTED_EDGE('',*,*,#1084,.F.);
#1084 = EDGE_CURVE('',#1056,#1085,#1087,.T.);
#1085 = VERTEX_POINT('',#1086);
#1086 = CARTESIAN_POINT('',(1.7399,2.413,1.27));
#1087 = LINE('',#1088,#1089);
#1088 = CARTESIAN_POINT('',(1.57005,2.413,1.27));
#1089 = VECTOR('',#1090,1.);
#1090 = DIRECTION('',(1.,0.,0.));
#1091 = ORIENTED_EDGE('',*,*,#1070,.T.);
#1092 = ORIENTED_EDGE('',*,*,#310,.T.);
#1093 = ORIENTED_EDGE('',*,*,#1094,.F.);
#1094 = EDGE_CURVE('',#1085,#303,#1095,.T.);
#1095 = LINE('',#1096,#1097);
#1096 = CARTESIAN_POINT('',(1.7399,2.819966482548E-16,1.27));
#1097 = VECTOR('',#1098,1.);
#1098 = DIRECTION('',(0.,1.,-2.22044604925E-16));
#1099 = PLANE('',#1100);
#1100 = AXIS2_PLACEMENT_3D('',#1101,#1102,#1103);
#1101 = CARTESIAN_POINT('',(0.8001,2.819966482548E-16,1.27));
#1102 = DIRECTION('',(0.,-2.22044604925E-16,-1.));
#1103 = DIRECTION('',(1.,0.,0.));
#1104 = ADVANCED_FACE('',(#1105),#1123,.F.);
#1105 = FACE_BOUND('',#1106,.F.);
#1106 = EDGE_LOOP('',(#1107,#1115,#1116,#1117));
#1107 = ORIENTED_EDGE('',*,*,#1108,.F.);
#1108 = EDGE_CURVE('',#1085,#1109,#1111,.T.);
#1109 = VERTEX_POINT('',#1110);
#1110 = CARTESIAN_POINT('',(1.7399,2.413,4.572));
#1111 = LINE('',#1112,#1113);
#1112 = CARTESIAN_POINT('',(1.7399,2.413,6.00329));
#1113 = VECTOR('',#1114,1.);
#1114 = DIRECTION('',(0.,0.,1.));
#1115 = ORIENTED_EDGE('',*,*,#1094,.T.);
#1116 = ORIENTED_EDGE('',*,*,#302,.T.);
#1117 = ORIENTED_EDGE('',*,*,#1118,.F.);
#1118 = EDGE_CURVE('',#1109,#295,#1119,.T.);
#1119 = LINE('',#1120,#1121);
#1120 = CARTESIAN_POINT('',(1.7399,1.015187933717E-15,4.572));
#1121 = VECTOR('',#1122,1.);
#1122 = DIRECTION('',(0.,1.,-2.22044604925E-16));
#1123 = PLANE('',#1124);
#1124 = AXIS2_PLACEMENT_3D('',#1125,#1126,#1127);
#1125 = CARTESIAN_POINT('',(1.7399,2.819966482548E-16,1.27));
#1126 = DIRECTION('',(1.,0.,0.));
#1127 = DIRECTION('',(0.,2.22044604925E-16,1.));
#1128 = ADVANCED_FACE('',(#1129),#1140,.F.);
#1129 = FACE_BOUND('',#1130,.F.);
#1130 = EDGE_LOOP('',(#1131,#1137,#1138,#1139));
#1131 = ORIENTED_EDGE('',*,*,#1132,.F.);
#1132 = EDGE_CURVE('',#1109,#1054,#1133,.T.);
#1133 = LINE('',#1134,#1135);
#1134 = CARTESIAN_POINT('',(2.03995,2.413,4.572));
#1135 = VECTOR('',#1136,1.);
#1136 = DIRECTION('',(-1.,0.,0.));
#1137 = ORIENTED_EDGE('',*,*,#1118,.T.);
#1138 = ORIENTED_EDGE('',*,*,#294,.T.);
#1139 = ORIENTED_EDGE('',*,*,#1063,.F.);
#1140 = PLANE('',#1141);
#1141 = AXIS2_PLACEMENT_3D('',#1142,#1143,#1144);
#1142 = CARTESIAN_POINT('',(1.7399,1.015187933717E-15,4.572));
#1143 = DIRECTION('',(0.,2.22044604925E-16,1.));
#1144 = DIRECTION('',(-1.,0.,0.));
#1145 = ADVANCED_FACE('',(#1146),#1171,.F.);
#1146 = FACE_BOUND('',#1147,.F.);
#1147 = EDGE_LOOP('',(#1148,#1158,#1164,#1165));
#1148 = ORIENTED_EDGE('',*,*,#1149,.F.);
#1149 = EDGE_CURVE('',#1150,#1152,#1154,.T.);
#1150 = VERTEX_POINT('',#1151);
#1151 = CARTESIAN_POINT('',(-1.7399,2.413,4.572));
#1152 = VERTEX_POINT('',#1153);
#1153 = CARTESIAN_POINT('',(-1.7399,2.413,1.27));
#1154 = LINE('',#1155,#1156);
#1155 = CARTESIAN_POINT('',(-1.7399,2.413,7.65429));
#1156 = VECTOR('',#1157,1.);
#1157 = DIRECTION('',(0.,0.,-1.));
#1158 = ORIENTED_EDGE('',*,*,#1159,.T.);
#1159 = EDGE_CURVE('',#1150,#319,#1160,.T.);
#1160 = LINE('',#1161,#1162);
#1161 = CARTESIAN_POINT('',(-1.7399,1.015187933717E-15,4.572));
#1162 = VECTOR('',#1163,1.);
#1163 = DIRECTION('',(0.,1.,-2.22044604925E-16));
#1164 = ORIENTED_EDGE('',*,*,#318,.T.);
#1165 = ORIENTED_EDGE('',*,*,#1166,.F.);
#1166 = EDGE_CURVE('',#1152,#321,#1167,.T.);
#1167 = LINE('',#1168,#1169);
#1168 = CARTESIAN_POINT('',(-1.7399,2.819966482548E-16,1.27));
#1169 = VECTOR('',#1170,1.);
#1170 = DIRECTION('',(0.,1.,-2.22044604925E-16));
#1171 = PLANE('',#1172);
#1172 = AXIS2_PLACEMENT_3D('',#1173,#1174,#1175);
#1173 = CARTESIAN_POINT('',(-1.7399,1.015187933717E-15,4.572));
#1174 = DIRECTION('',(-1.,0.,0.));
#1175 = DIRECTION('',(0.,-2.22044604925E-16,-1.));
#1176 = ADVANCED_FACE('',(#1177),#1195,.F.);
#1177 = FACE_BOUND('',#1178,.F.);
#1178 = EDGE_LOOP('',(#1179,#1187,#1193,#1194));
#1179 = ORIENTED_EDGE('',*,*,#1180,.F.);
#1180 = EDGE_CURVE('',#1181,#1150,#1183,.T.);
#1181 = VERTEX_POINT('',#1182);
#1182 = CARTESIAN_POINT('',(-0.8001,2.413,4.572));
#1183 = LINE('',#1184,#1185);
#1184 = CARTESIAN_POINT('',(-0.50005,2.413,4.572));
#1185 = VECTOR('',#1186,1.);
#1186 = DIRECTION('',(-1.,0.,0.));
#1187 = ORIENTED_EDGE('',*,*,#1188,.T.);
#1188 = EDGE_CURVE('',#1181,#329,#1189,.T.);
#1189 = LINE('',#1190,#1191);
#1190 = CARTESIAN_POINT('',(-0.8001,1.015187933717E-15,4.572));
#1191 = VECTOR('',#1192,1.);
#1192 = DIRECTION('',(0.,1.,-2.22044604925E-16));
#1193 = ORIENTED_EDGE('',*,*,#328,.T.);
#1194 = ORIENTED_EDGE('',*,*,#1159,.F.);
#1195 = PLANE('',#1196);
#1196 = AXIS2_PLACEMENT_3D('',#1197,#1198,#1199);
#1197 = CARTESIAN_POINT('',(-0.8001,1.015187933717E-15,4.572));
#1198 = DIRECTION('',(0.,2.22044604925E-16,1.));
#1199 = DIRECTION('',(-1.,0.,0.));
#1200 = ADVANCED_FACE('',(#1201),#1219,.F.);
#1201 = FACE_BOUND('',#1202,.F.);
#1202 = EDGE_LOOP('',(#1203,#1211,#1212,#1213));
#1203 = ORIENTED_EDGE('',*,*,#1204,.F.);
#1204 = EDGE_CURVE('',#1152,#1205,#1207,.T.);
#1205 = VERTEX_POINT('',#1206);
#1206 = CARTESIAN_POINT('',(-0.8001,2.413,1.27));
#1207 = LINE('',#1208,#1209);
#1208 = CARTESIAN_POINT('',(-0.96995,2.413,1.27));
#1209 = VECTOR('',#1210,1.);
#1210 = DIRECTION('',(1.,0.,0.));
#1211 = ORIENTED_EDGE('',*,*,#1166,.T.);
#1212 = ORIENTED_EDGE('',*,*,#344,.T.);
#1213 = ORIENTED_EDGE('',*,*,#1214,.F.);
#1214 = EDGE_CURVE('',#1205,#337,#1215,.T.);
#1215 = LINE('',#1216,#1217);
#1216 = CARTESIAN_POINT('',(-0.8001,2.819966482548E-16,1.27));
#1217 = VECTOR('',#1218,1.);
#1218 = DIRECTION('',(0.,1.,-2.22044604925E-16));
#1219 = PLANE('',#1220);
#1220 = AXIS2_PLACEMENT_3D('',#1221,#1222,#1223);
#1221 = CARTESIAN_POINT('',(-1.7399,2.819966482548E-16,1.27));
#1222 = DIRECTION('',(0.,-2.22044604925E-16,-1.));
#1223 = DIRECTION('',(1.,0.,0.));
#1224 = ADVANCED_FACE('',(#1225),#1236,.F.);
#1225 = FACE_BOUND('',#1226,.F.);
#1226 = EDGE_LOOP('',(#1227,#1233,#1234,#1235));
#1227 = ORIENTED_EDGE('',*,*,#1228,.F.);
#1228 = EDGE_CURVE('',#1205,#1181,#1229,.T.);
#1229 = LINE('',#1230,#1231);
#1230 = CARTESIAN_POINT('',(-0.8001,2.413,6.00329));
#1231 = VECTOR('',#1232,1.);
#1232 = DIRECTION('',(0.,0.,1.));
#1233 = ORIENTED_EDGE('',*,*,#1214,.T.);
#1234 = ORIENTED_EDGE('',*,*,#336,.T.);
#1235 = ORIENTED_EDGE('',*,*,#1188,.F.);
#1236 = PLANE('',#1237);
#1237 = AXIS2_PLACEMENT_3D('',#1238,#1239,#1240);
#1238 = CARTESIAN_POINT('',(-0.8001,2.819966482548E-16,1.27));
#1239 = DIRECTION('',(1.,0.,0.));
#1240 = DIRECTION('',(0.,2.22044604925E-16,1.));
#1241 = ADVANCED_FACE('',(#1242),#1252,.F.);
#1242 = FACE_BOUND('',#1243,.T.);
#1243 = EDGE_LOOP('',(#1244,#1250,#1251));
#1244 = ORIENTED_EDGE('',*,*,#1245,.T.);
#1245 = EDGE_CURVE('',#432,#384,#1246,.T.);
#1246 = LINE('',#1247,#1248);
#1247 = CARTESIAN_POINT('',(-2.54,-2.2606,2.159));
#1248 = VECTOR('',#1249,1.);
#1249 = DIRECTION('',(0.,1.,0.));
#1250 = ORIENTED_EDGE('',*,*,#391,.T.);
#1251 = ORIENTED_EDGE('',*,*,#439,.T.);
#1252 = PLANE('',#1253);
#1253 = AXIS2_PLACEMENT_3D('',#1254,#1255,#1256);
#1254 = CARTESIAN_POINT('',(-2.54,-1.78998606591,1.21991393409));
#1255 = DIRECTION('',(1.,0.,0.));
#1256 = DIRECTION('',(0.,0.,1.));
#1257 = ADVANCED_FACE('',(#1258),#1269,.T.);
#1258 = FACE_BOUND('',#1259,.T.);
#1259 = EDGE_LOOP('',(#1260,#1261,#1267,#1268));
#1260 = ORIENTED_EDGE('',*,*,#431,.T.);
#1261 = ORIENTED_EDGE('',*,*,#1262,.T.);
#1262 = EDGE_CURVE('',#424,#376,#1263,.T.);
#1263 = LINE('',#1264,#1265);
#1264 = CARTESIAN_POINT('',(2.54,-2.2606,2.159));
#1265 = VECTOR('',#1266,1.);
#1266 = DIRECTION('',(0.,1.,0.));
#1267 = ORIENTED_EDGE('',*,*,#383,.F.);
#1268 = ORIENTED_EDGE('',*,*,#1245,.F.);
#1269 = PLANE('',#1270);
#1270 = AXIS2_PLACEMENT_3D('',#1271,#1272,#1273);
#1271 = CARTESIAN_POINT('',(-2.54,-2.2606,2.159));
#1272 = DIRECTION('',(0.,0.,1.));
#1273 = DIRECTION('',(0.,1.,0.));
#1274 = ADVANCED_FACE('',(#1275),#1280,.T.);
#1275 = FACE_BOUND('',#1276,.F.);
#1276 = EDGE_LOOP('',(#1277,#1278,#1279));
#1277 = ORIENTED_EDGE('',*,*,#1262,.T.);
#1278 = ORIENTED_EDGE('',*,*,#375,.T.);
#1279 = ORIENTED_EDGE('',*,*,#423,.T.);
#1280 = PLANE('',#1281);
#1281 = AXIS2_PLACEMENT_3D('',#1282,#1283,#1284);
#1282 = CARTESIAN_POINT('',(2.54,-1.78998606591,1.21991393409));
#1283 = DIRECTION('',(1.,0.,0.));
#1284 = DIRECTION('',(0.,0.,1.));
#1285 = ADVANCED_FACE('',(#1286),#1311,.F.);
#1286 = FACE_BOUND('',#1287,.F.);
#1287 = EDGE_LOOP('',(#1288,#1296,#1304,#1310));
#1288 = ORIENTED_EDGE('',*,*,#1289,.F.);
#1289 = EDGE_CURVE('',#1290,#463,#1292,.T.);
#1290 = VERTEX_POINT('',#1291);
#1291 = CARTESIAN_POINT('',(-1.7145,0.4445,1.27));
#1292 = LINE('',#1293,#1294);
#1293 = CARTESIAN_POINT('',(-1.7145,0.4445,15.161227611813));
#1294 = VECTOR('',#1295,1.);
#1295 = DIRECTION('',(-0.,-0.,-1.));
#1296 = ORIENTED_EDGE('',*,*,#1297,.F.);
#1297 = EDGE_CURVE('',#1298,#1290,#1300,.T.);
#1298 = VERTEX_POINT('',#1299);
#1299 = CARTESIAN_POINT('',(-0.8255,0.4445,1.27));
#1300 = LINE('',#1301,#1302);
#1301 = CARTESIAN_POINT('',(-0.51275,0.4445,1.27));
#1302 = VECTOR('',#1303,1.);
#1303 = DIRECTION('',(-1.,0.,0.));
#1304 = ORIENTED_EDGE('',*,*,#1305,.T.);
#1305 = EDGE_CURVE('',#1298,#454,#1306,.T.);
#1306 = LINE('',#1307,#1308);
#1307 = CARTESIAN_POINT('',(-0.8255,0.4445,15.161227611813));
#1308 = VECTOR('',#1309,1.);
#1309 = DIRECTION('',(-0.,-0.,-1.));
#1310 = ORIENTED_EDGE('',*,*,#470,.T.);
#1311 = PLANE('',#1312);
#1312 = AXIS2_PLACEMENT_3D('',#1313,#1314,#1315);
#1313 = CARTESIAN_POINT('',(-0.8255,0.4445,15.161227611813));
#1314 = DIRECTION('',(0.,1.,0.));
#1315 = DIRECTION('',(-1.,0.,0.));
#1316 = ADVANCED_FACE('',(#1317),#1335,.F.);
#1317 = FACE_BOUND('',#1318,.F.);
#1318 = EDGE_LOOP('',(#1319,#1320,#1328,#1334));
#1319 = ORIENTED_EDGE('',*,*,#1305,.F.);
#1320 = ORIENTED_EDGE('',*,*,#1321,.F.);
#1321 = EDGE_CURVE('',#1322,#1298,#1324,.T.);
#1322 = VERTEX_POINT('',#1323);
#1323 = CARTESIAN_POINT('',(-0.8255,-0.4445,1.27));
#1324 = LINE('',#1325,#1326);
#1325 = CARTESIAN_POINT('',(-0.8255,0.1905,1.27));
#1326 = VECTOR('',#1327,1.);
#1327 = DIRECTION('',(0.,1.,0.));
#1328 = ORIENTED_EDGE('',*,*,#1329,.T.);
#1329 = EDGE_CURVE('',#1322,#485,#1330,.T.);
#1330 = LINE('',#1331,#1332);
#1331 = CARTESIAN_POINT('',(-0.8255,-0.4445,15.161227611813));
#1332 = VECTOR('',#1333,1.);
#1333 = DIRECTION('',(-0.,-0.,-1.));
#1334 = ORIENTED_EDGE('',*,*,#494,.T.);
#1335 = PLANE('',#1336);
#1336 = AXIS2_PLACEMENT_3D('',#1337,#1338,#1339);
#1337 = CARTESIAN_POINT('',(-0.8255,-0.4445,15.161227611813));
#1338 = DIRECTION('',(1.,0.,0.));
#1339 = DIRECTION('',(0.,1.,0.));
#1340 = ADVANCED_FACE('',(#1341),#1359,.F.);
#1341 = FACE_BOUND('',#1342,.F.);
#1342 = EDGE_LOOP('',(#1343,#1351,#1357,#1358));
#1343 = ORIENTED_EDGE('',*,*,#1344,.F.);
#1344 = EDGE_CURVE('',#1345,#511,#1347,.T.);
#1345 = VERTEX_POINT('',#1346);
#1346 = CARTESIAN_POINT('',(-1.7145,-0.4445,1.27));
#1347 = LINE('',#1348,#1349);
#1348 = CARTESIAN_POINT('',(-1.7145,-0.4445,15.161227611813));
#1349 = VECTOR('',#1350,1.);
#1350 = DIRECTION('',(-0.,-0.,-1.));
#1351 = ORIENTED_EDGE('',*,*,#1352,.F.);
#1352 = EDGE_CURVE('',#1290,#1345,#1353,.T.);
#1353 = LINE('',#1354,#1355);
#1354 = CARTESIAN_POINT('',(-1.7145,0.635,1.27));
#1355 = VECTOR('',#1356,1.);
#1356 = DIRECTION('',(0.,-1.,0.));
#1357 = ORIENTED_EDGE('',*,*,#1289,.T.);
#1358 = ORIENTED_EDGE('',*,*,#518,.T.);
#1359 = PLANE('',#1360);
#1360 = AXIS2_PLACEMENT_3D('',#1361,#1362,#1363);
#1361 = CARTESIAN_POINT('',(-1.7145,0.4445,15.161227611813));
#1362 = DIRECTION('',(-1.,0.,0.));
#1363 = DIRECTION('',(0.,-1.,0.));
#1364 = ADVANCED_FACE('',(#1365),#1376,.F.);
#1365 = FACE_BOUND('',#1366,.F.);
#1366 = EDGE_LOOP('',(#1367,#1368,#1374,#1375));
#1367 = ORIENTED_EDGE('',*,*,#1329,.F.);
#1368 = ORIENTED_EDGE('',*,*,#1369,.F.);
#1369 = EDGE_CURVE('',#1345,#1322,#1370,.T.);
#1370 = LINE('',#1371,#1372);
#1371 = CARTESIAN_POINT('',(-0.95725,-0.4445,1.27));
#1372 = VECTOR('',#1373,1.);
#1373 = DIRECTION('',(1.,0.,0.));
#1374 = ORIENTED_EDGE('',*,*,#1344,.T.);
#1375 = ORIENTED_EDGE('',*,*,#535,.T.);
#1376 = PLANE('',#1377);
#1377 = AXIS2_PLACEMENT_3D('',#1378,#1379,#1380);
#1378 = CARTESIAN_POINT('',(-1.7145,-0.4445,15.161227611813));
#1379 = DIRECTION('',(0.,-1.,0.));
#1380 = DIRECTION('',(1.,0.,0.));
#1381 = ADVANCED_FACE('',(#1382),#1407,.F.);
#1382 = FACE_BOUND('',#1383,.F.);
#1383 = EDGE_LOOP('',(#1384,#1394,#1400,#1401));
#1384 = ORIENTED_EDGE('',*,*,#1385,.F.);
#1385 = EDGE_CURVE('',#1386,#1388,#1390,.T.);
#1386 = VERTEX_POINT('',#1387);
#1387 = CARTESIAN_POINT('',(1.7145,-0.4445,1.27));
#1388 = VERTEX_POINT('',#1389);
#1389 = CARTESIAN_POINT('',(1.7145,0.4445,1.27));
#1390 = LINE('',#1391,#1392);
#1391 = CARTESIAN_POINT('',(1.7145,0.1905,1.27));
#1392 = VECTOR('',#1393,1.);
#1393 = DIRECTION('',(0.,1.,0.));
#1394 = ORIENTED_EDGE('',*,*,#1395,.T.);
#1395 = EDGE_CURVE('',#1386,#550,#1396,.T.);
#1396 = LINE('',#1397,#1398);
#1397 = CARTESIAN_POINT('',(1.7145,-0.4445,15.161227611813));
#1398 = VECTOR('',#1399,1.);
#1399 = DIRECTION('',(-0.,-0.,-1.));
#1400 = ORIENTED_EDGE('',*,*,#566,.T.);
#1401 = ORIENTED_EDGE('',*,*,#1402,.F.);
#1402 = EDGE_CURVE('',#1388,#559,#1403,.T.);
#1403 = LINE('',#1404,#1405);
#1404 = CARTESIAN_POINT('',(1.7145,0.4445,15.161227611813));
#1405 = VECTOR('',#1406,1.);
#1406 = DIRECTION('',(-0.,-0.,-1.));
#1407 = PLANE('',#1408);
#1408 = AXIS2_PLACEMENT_3D('',#1409,#1410,#1411);
#1409 = CARTESIAN_POINT('',(1.7145,-0.4445,15.161227611813));
#1410 = DIRECTION('',(1.,0.,0.));
#1411 = DIRECTION('',(0.,1.,0.));
#1412 = ADVANCED_FACE('',(#1413),#1431,.F.);
#1413 = FACE_BOUND('',#1414,.F.);
#1414 = EDGE_LOOP('',(#1415,#1423,#1429,#1430));
#1415 = ORIENTED_EDGE('',*,*,#1416,.F.);
#1416 = EDGE_CURVE('',#1417,#1386,#1419,.T.);
#1417 = VERTEX_POINT('',#1418);
#1418 = CARTESIAN_POINT('',(0.8255,-0.4445,1.27));
#1419 = LINE('',#1420,#1421);
#1420 = CARTESIAN_POINT('',(1.58275,-0.4445,1.27));
#1421 = VECTOR('',#1422,1.);
#1422 = DIRECTION('',(1.,0.,0.));
#1423 = ORIENTED_EDGE('',*,*,#1424,.T.);
#1424 = EDGE_CURVE('',#1417,#581,#1425,.T.);
#1425 = LINE('',#1426,#1427);
#1426 = CARTESIAN_POINT('',(0.8255,-0.4445,15.161227611813));
#1427 = VECTOR('',#1428,1.);
#1428 = DIRECTION('',(-0.,-0.,-1.));
#1429 = ORIENTED_EDGE('',*,*,#590,.T.);
#1430 = ORIENTED_EDGE('',*,*,#1395,.F.);
#1431 = PLANE('',#1432);
#1432 = AXIS2_PLACEMENT_3D('',#1433,#1434,#1435);
#1433 = CARTESIAN_POINT('',(0.8255,-0.4445,15.161227611813));
#1434 = DIRECTION('',(0.,-1.,0.));
#1435 = DIRECTION('',(1.,0.,0.));
#1436 = ADVANCED_FACE('',(#1437),#1455,.F.);
#1437 = FACE_BOUND('',#1438,.F.);
#1438 = EDGE_LOOP('',(#1439,#1447,#1448,#1449));
#1439 = ORIENTED_EDGE('',*,*,#1440,.F.);
#1440 = EDGE_CURVE('',#1388,#1441,#1443,.T.);
#1441 = VERTEX_POINT('',#1442);
#1442 = CARTESIAN_POINT('',(0.8255,0.4445,1.27));
#1443 = LINE('',#1444,#1445);
#1444 = CARTESIAN_POINT('',(2.02725,0.4445,1.27));
#1445 = VECTOR('',#1446,1.);
#1446 = DIRECTION('',(-1.,0.,0.));
#1447 = ORIENTED_EDGE('',*,*,#1402,.T.);
#1448 = ORIENTED_EDGE('',*,*,#614,.T.);
#1449 = ORIENTED_EDGE('',*,*,#1450,.F.);
#1450 = EDGE_CURVE('',#1441,#607,#1451,.T.);
#1451 = LINE('',#1452,#1453);
#1452 = CARTESIAN_POINT('',(0.8255,0.4445,15.161227611813));
#1453 = VECTOR('',#1454,1.);
#1454 = DIRECTION('',(-0.,-0.,-1.));
#1455 = PLANE('',#1456);
#1456 = AXIS2_PLACEMENT_3D('',#1457,#1458,#1459);
#1457 = CARTESIAN_POINT('',(1.7145,0.4445,15.161227611813));
#1458 = DIRECTION('',(0.,1.,0.));
#1459 = DIRECTION('',(-1.,0.,0.));
#1460 = ADVANCED_FACE('',(#1461),#1472,.F.);
#1461 = FACE_BOUND('',#1462,.F.);
#1462 = EDGE_LOOP('',(#1463,#1469,#1470,#1471));
#1463 = ORIENTED_EDGE('',*,*,#1464,.F.);
#1464 = EDGE_CURVE('',#1441,#1417,#1465,.T.);
#1465 = LINE('',#1466,#1467);
#1466 = CARTESIAN_POINT('',(0.8255,0.635,1.27));
#1467 = VECTOR('',#1468,1.);
#1468 = DIRECTION('',(0.,-1.,0.));
#1469 = ORIENTED_EDGE('',*,*,#1450,.T.);
#1470 = ORIENTED_EDGE('',*,*,#631,.T.);
#1471 = ORIENTED_EDGE('',*,*,#1424,.F.);
#1472 = PLANE('',#1473);
#1473 = AXIS2_PLACEMENT_3D('',#1474,#1475,#1476);
#1474 = CARTESIAN_POINT('',(0.8255,0.4445,15.161227611813));
#1475 = DIRECTION('',(-1.,0.,0.));
#1476 = DIRECTION('',(0.,-1.,0.));
#1477 = ADVANCED_FACE('',(#1478),#1491,.T.);
#1478 = FACE_BOUND('',#1479,.T.);
#1479 = EDGE_LOOP('',(#1480,#1481,#1482,#1483,#1484,#1485,#1486,#1487,
    #1488,#1489,#1490));
#1480 = ORIENTED_EDGE('',*,*,#653,.F.);
#1481 = ORIENTED_EDGE('',*,*,#893,.F.);
#1482 = ORIENTED_EDGE('',*,*,#869,.F.);
#1483 = ORIENTED_EDGE('',*,*,#845,.F.);
#1484 = ORIENTED_EDGE('',*,*,#821,.F.);
#1485 = ORIENTED_EDGE('',*,*,#797,.F.);
#1486 = ORIENTED_EDGE('',*,*,#773,.F.);
#1487 = ORIENTED_EDGE('',*,*,#749,.F.);
#1488 = ORIENTED_EDGE('',*,*,#725,.F.);
#1489 = ORIENTED_EDGE('',*,*,#701,.F.);
#1490 = ORIENTED_EDGE('',*,*,#677,.F.);
#1491 = PLANE('',#1492);
#1492 = AXIS2_PLACEMENT_3D('',#1493,#1494,#1495);
#1493 = CARTESIAN_POINT('',(-1.315174575762,2.199619825307,2.54E-02));
#1494 = DIRECTION('',(0.,-1.224646799147E-16,-1.));
#1495 = DIRECTION('',(1.,0.,0.));
#1496 = ADVANCED_FACE('',(#1497),#1522,.T.);
#1497 = FACE_BOUND('',#1498,.T.);
#1498 = EDGE_LOOP('',(#1499,#1507,#1515,#1521));
#1499 = ORIENTED_EDGE('',*,*,#1500,.F.);
#1500 = EDGE_CURVE('',#1501,#916,#1503,.T.);
#1501 = VERTEX_POINT('',#1502);
#1502 = CARTESIAN_POINT('',(-0.2,-0.8382,1.27));
#1503 = LINE('',#1504,#1505);
#1504 = CARTESIAN_POINT('',(-0.2,-0.8382,1.27));
#1505 = VECTOR('',#1506,1.);
#1506 = DIRECTION('',(0.,0.,1.));
#1507 = ORIENTED_EDGE('',*,*,#1508,.T.);
#1508 = EDGE_CURVE('',#1501,#1509,#1511,.T.);
#1509 = VERTEX_POINT('',#1510);
#1510 = CARTESIAN_POINT('',(-2.34,-0.8382,1.27));
#1511 = LINE('',#1512,#1513);
#1512 = CARTESIAN_POINT('',(-0.2,-0.8382,1.27));
#1513 = VECTOR('',#1514,1.);
#1514 = DIRECTION('',(-1.,-0.,-0.));
#1515 = ORIENTED_EDGE('',*,*,#1516,.T.);
#1516 = EDGE_CURVE('',#1509,#918,#1517,.T.);
#1517 = LINE('',#1518,#1519);
#1518 = CARTESIAN_POINT('',(-2.34,-0.8382,1.27));
#1519 = VECTOR('',#1520,1.);
#1520 = DIRECTION('',(0.,0.,1.));
#1521 = ORIENTED_EDGE('',*,*,#915,.F.);
#1522 = PLANE('',#1523);
#1523 = AXIS2_PLACEMENT_3D('',#1524,#1525,#1526);
#1524 = CARTESIAN_POINT('',(-0.2,-0.8382,1.27));
#1525 = DIRECTION('',(0.,1.,0.));
#1526 = DIRECTION('',(0.,0.,1.));
#1527 = ADVANCED_FACE('',(#1528),#1578,.F.);
#1528 = FACE_BOUND('',#1529,.F.);
#1529 = EDGE_LOOP('',(#1530,#1531,#1532,#1540,#1548,#1556,#1564,#1572));
#1530 = ORIENTED_EDGE('',*,*,#973,.F.);
#1531 = ORIENTED_EDGE('',*,*,#1500,.F.);
#1532 = ORIENTED_EDGE('',*,*,#1533,.F.);
#1533 = EDGE_CURVE('',#1534,#1501,#1536,.T.);
#1534 = VERTEX_POINT('',#1535);
#1535 = CARTESIAN_POINT('',(-0.2,0.8255,1.27));
#1536 = LINE('',#1537,#1538);
#1537 = CARTESIAN_POINT('',(-0.2,0.8255,1.27));
#1538 = VECTOR('',#1539,1.);
#1539 = DIRECTION('',(0.,-1.,0.));
#1540 = ORIENTED_EDGE('',*,*,#1541,.F.);
#1541 = EDGE_CURVE('',#1542,#1534,#1544,.T.);
#1542 = VERTEX_POINT('',#1543);
#1543 = CARTESIAN_POINT('',(-0.2,0.99568,0.635));
#1544 = LINE('',#1545,#1546);
#1545 = CARTESIAN_POINT('',(-0.2,0.99568,0.635));
#1546 = VECTOR('',#1547,1.);
#1547 = DIRECTION('',(0.,-0.258864833081,0.965913556274));
#1548 = ORIENTED_EDGE('',*,*,#1549,.F.);
#1549 = EDGE_CURVE('',#1550,#1542,#1552,.T.);
#1550 = VERTEX_POINT('',#1551);
#1551 = CARTESIAN_POINT('',(-0.2,2.413,0.635));
#1552 = LINE('',#1553,#1554);
#1553 = CARTESIAN_POINT('',(-0.2,2.413,0.635));
#1554 = VECTOR('',#1555,1.);
#1555 = DIRECTION('',(0.,-1.,0.));
#1556 = ORIENTED_EDGE('',*,*,#1557,.F.);
#1557 = EDGE_CURVE('',#1558,#1550,#1560,.T.);
#1558 = VERTEX_POINT('',#1559);
#1559 = CARTESIAN_POINT('',(-0.2,2.413,10.73658));
#1560 = LINE('',#1561,#1562);
#1561 = CARTESIAN_POINT('',(-0.2,2.413,10.73658));
#1562 = VECTOR('',#1563,1.);
#1563 = DIRECTION('',(0.,0.,-1.));
#1564 = ORIENTED_EDGE('',*,*,#1565,.F.);
#1565 = EDGE_CURVE('',#1566,#1558,#1568,.T.);
#1566 = VERTEX_POINT('',#1567);
#1567 = CARTESIAN_POINT('',(-0.2,2.667,11.684));
#1568 = LINE('',#1569,#1570);
#1569 = CARTESIAN_POINT('',(-0.2,2.667,11.684));
#1570 = VECTOR('',#1571,1.);
#1571 = DIRECTION('',(0.,-0.25895180774,-0.965890242868));
#1572 = ORIENTED_EDGE('',*,*,#1573,.F.);
#1573 = EDGE_CURVE('',#966,#1566,#1574,.T.);
#1574 = LINE('',#1575,#1576);
#1575 = CARTESIAN_POINT('',(-0.2,2.667,12.954));
#1576 = VECTOR('',#1577,1.);
#1577 = DIRECTION('',(0.,0.,-1.));
#1578 = PLANE('',#1579);
#1579 = AXIS2_PLACEMENT_3D('',#1580,#1581,#1582);
#1580 = CARTESIAN_POINT('',(-0.2,0.852584540567,6.912339051753));
#1581 = DIRECTION('',(1.,0.,0.));
#1582 = DIRECTION('',(0.,0.,1.));
#1583 = ADVANCED_FACE('',(#1584),#1634,.T.);
#1584 = FACE_BOUND('',#1585,.T.);
#1585 = EDGE_LOOP('',(#1586,#1587,#1588,#1596,#1604,#1612,#1620,#1628));
#1586 = ORIENTED_EDGE('',*,*,#925,.F.);
#1587 = ORIENTED_EDGE('',*,*,#1516,.F.);
#1588 = ORIENTED_EDGE('',*,*,#1589,.F.);
#1589 = EDGE_CURVE('',#1590,#1509,#1592,.T.);
#1590 = VERTEX_POINT('',#1591);
#1591 = CARTESIAN_POINT('',(-2.34,0.8255,1.27));
#1592 = LINE('',#1593,#1594);
#1593 = CARTESIAN_POINT('',(-2.34,0.8255,1.27));
#1594 = VECTOR('',#1595,1.);
#1595 = DIRECTION('',(0.,-1.,0.));
#1596 = ORIENTED_EDGE('',*,*,#1597,.F.);
#1597 = EDGE_CURVE('',#1598,#1590,#1600,.T.);
#1598 = VERTEX_POINT('',#1599);
#1599 = CARTESIAN_POINT('',(-2.34,0.99568,0.635));
#1600 = LINE('',#1601,#1602);
#1601 = CARTESIAN_POINT('',(-2.34,0.99568,0.635));
#1602 = VECTOR('',#1603,1.);
#1603 = DIRECTION('',(0.,-0.258864833081,0.965913556274));
#1604 = ORIENTED_EDGE('',*,*,#1605,.F.);
#1605 = EDGE_CURVE('',#1606,#1598,#1608,.T.);
#1606 = VERTEX_POINT('',#1607);
#1607 = CARTESIAN_POINT('',(-2.34,2.413,0.635));
#1608 = LINE('',#1609,#1610);
#1609 = CARTESIAN_POINT('',(-2.34,2.413,0.635));
#1610 = VECTOR('',#1611,1.);
#1611 = DIRECTION('',(0.,-1.,0.));
#1612 = ORIENTED_EDGE('',*,*,#1613,.F.);
#1613 = EDGE_CURVE('',#1614,#1606,#1616,.T.);
#1614 = VERTEX_POINT('',#1615);
#1615 = CARTESIAN_POINT('',(-2.34,2.413,10.73658));
#1616 = LINE('',#1617,#1618);
#1617 = CARTESIAN_POINT('',(-2.34,2.413,10.73658));
#1618 = VECTOR('',#1619,1.);
#1619 = DIRECTION('',(0.,0.,-1.));
#1620 = ORIENTED_EDGE('',*,*,#1621,.F.);
#1621 = EDGE_CURVE('',#1622,#1614,#1624,.T.);
#1622 = VERTEX_POINT('',#1623);
#1623 = CARTESIAN_POINT('',(-2.34,2.667,11.684));
#1624 = LINE('',#1625,#1626);
#1625 = CARTESIAN_POINT('',(-2.34,2.667,11.684));
#1626 = VECTOR('',#1627,1.);
#1627 = DIRECTION('',(0.,-0.25895180774,-0.965890242868));
#1628 = ORIENTED_EDGE('',*,*,#1629,.F.);
#1629 = EDGE_CURVE('',#926,#1622,#1630,.T.);
#1630 = LINE('',#1631,#1632);
#1631 = CARTESIAN_POINT('',(-2.34,2.667,12.954));
#1632 = VECTOR('',#1633,1.);
#1633 = DIRECTION('',(0.,0.,-1.));
#1634 = PLANE('',#1635);
#1635 = AXIS2_PLACEMENT_3D('',#1636,#1637,#1638);
#1636 = CARTESIAN_POINT('',(-2.34,0.852584540567,6.912339051753));
#1637 = DIRECTION('',(1.,0.,0.));
#1638 = DIRECTION('',(0.,0.,1.));
#1639 = ADVANCED_FACE('',(#1640),#1658,.T.);
#1640 = FACE_BOUND('',#1641,.T.);
#1641 = EDGE_LOOP('',(#1642,#1643,#1644,#1652));
#1642 = ORIENTED_EDGE('',*,*,#1573,.F.);
#1643 = ORIENTED_EDGE('',*,*,#965,.F.);
#1644 = ORIENTED_EDGE('',*,*,#1645,.F.);
#1645 = EDGE_CURVE('',#1646,#958,#1648,.T.);
#1646 = VERTEX_POINT('',#1647);
#1647 = CARTESIAN_POINT('',(-0.8001,2.667,11.684));
#1648 = LINE('',#1649,#1650);
#1649 = CARTESIAN_POINT('',(-0.8001,2.667,11.210829247161));
#1650 = VECTOR('',#1651,1.);
#1651 = DIRECTION('',(0.,0.,1.));
#1652 = ORIENTED_EDGE('',*,*,#1653,.F.);
#1653 = EDGE_CURVE('',#1566,#1646,#1654,.T.);
#1654 = LINE('',#1655,#1656);
#1655 = CARTESIAN_POINT('',(-0.2,2.667,11.684));
#1656 = VECTOR('',#1657,1.);
#1657 = DIRECTION('',(-1.,-0.,-0.));
#1658 = PLANE('',#1659);
#1659 = AXIS2_PLACEMENT_3D('',#1660,#1661,#1662);
#1660 = CARTESIAN_POINT('',(-0.2,2.667,12.954));
#1661 = DIRECTION('',(0.,-1.,0.));
#1662 = DIRECTION('',(0.,0.,-1.));
#1663 = ADVANCED_FACE('',(#1664),#1682,.T.);
#1664 = FACE_BOUND('',#1665,.T.);
#1665 = EDGE_LOOP('',(#1666,#1674,#1675,#1676));
#1666 = ORIENTED_EDGE('',*,*,#1667,.T.);
#1667 = EDGE_CURVE('',#1668,#934,#1670,.T.);
#1668 = VERTEX_POINT('',#1669);
#1669 = CARTESIAN_POINT('',(-1.7399,2.667,11.684));
#1670 = LINE('',#1671,#1672);
#1671 = CARTESIAN_POINT('',(-1.7399,2.667,11.210829247161));
#1672 = VECTOR('',#1673,1.);
#1673 = DIRECTION('',(0.,0.,1.));
#1674 = ORIENTED_EDGE('',*,*,#933,.F.);
#1675 = ORIENTED_EDGE('',*,*,#1629,.T.);
#1676 = ORIENTED_EDGE('',*,*,#1677,.F.);
#1677 = EDGE_CURVE('',#1668,#1622,#1678,.T.);
#1678 = LINE('',#1679,#1680);
#1679 = CARTESIAN_POINT('',(-0.2,2.667,11.684));
#1680 = VECTOR('',#1681,1.);
#1681 = DIRECTION('',(-1.,-0.,-0.));
#1682 = PLANE('',#1683);
#1683 = AXIS2_PLACEMENT_3D('',#1684,#1685,#1686);
#1684 = CARTESIAN_POINT('',(-0.2,2.667,12.954));
#1685 = DIRECTION('',(0.,-1.,0.));
#1686 = DIRECTION('',(0.,0.,-1.));
#1687 = ADVANCED_FACE('',(#1688),#1722,.F.);
#1688 = FACE_BOUND('',#1689,.F.);
#1689 = EDGE_LOOP('',(#1690,#1698,#1699,#1700,#1708,#1716));
#1690 = ORIENTED_EDGE('',*,*,#1691,.T.);
#1691 = EDGE_CURVE('',#1692,#950,#1694,.T.);
#1692 = VERTEX_POINT('',#1693);
#1693 = CARTESIAN_POINT('',(-0.8001,2.921,6.35));
#1694 = LINE('',#1695,#1696);
#1695 = CARTESIAN_POINT('',(-0.8001,2.921,6.35));
#1696 = VECTOR('',#1697,1.);
#1697 = DIRECTION('',(0.,0.,1.));
#1698 = ORIENTED_EDGE('',*,*,#957,.F.);
#1699 = ORIENTED_EDGE('',*,*,#1645,.F.);
#1700 = ORIENTED_EDGE('',*,*,#1701,.F.);
#1701 = EDGE_CURVE('',#1702,#1646,#1704,.T.);
#1702 = VERTEX_POINT('',#1703);
#1703 = CARTESIAN_POINT('',(-0.8001,2.413,10.73658));
#1704 = LINE('',#1705,#1706);
#1705 = CARTESIAN_POINT('',(-0.8001,2.380879402684,10.616770172013));
#1706 = VECTOR('',#1707,1.);
#1707 = DIRECTION('',(0.,0.25895180774,0.965890242868));
#1708 = ORIENTED_EDGE('',*,*,#1709,.F.);
#1709 = EDGE_CURVE('',#1710,#1702,#1712,.T.);
#1710 = VERTEX_POINT('',#1711);
#1711 = CARTESIAN_POINT('',(-0.8001,2.413,5.842));
#1712 = LINE('',#1713,#1714);
#1713 = CARTESIAN_POINT('',(-0.8001,2.413,10.102119247161));
#1714 = VECTOR('',#1715,1.);
#1715 = DIRECTION('',(0.,0.,1.));
#1716 = ORIENTED_EDGE('',*,*,#1717,.T.);
#1717 = EDGE_CURVE('',#1710,#1692,#1718,.T.);
#1718 = LINE('',#1719,#1720);
#1719 = CARTESIAN_POINT('',(-0.8001,2.413,5.842));
#1720 = VECTOR('',#1721,1.);
#1721 = DIRECTION('',(0.,0.707106781187,0.707106781187));
#1722 = PLANE('',#1723);
#1723 = AXIS2_PLACEMENT_3D('',#1724,#1725,#1726);
#1724 = CARTESIAN_POINT('',(-0.8001,2.400178104766,9.467658494321));
#1725 = DIRECTION('',(1.,0.,0.));
#1726 = DIRECTION('',(0.,0.,1.));
#1727 = ADVANCED_FACE('',(#1728),#1762,.T.);
#1728 = FACE_BOUND('',#1729,.T.);
#1729 = EDGE_LOOP('',(#1730,#1738,#1739,#1740,#1748,#1756));
#1730 = ORIENTED_EDGE('',*,*,#1731,.T.);
#1731 = EDGE_CURVE('',#1732,#942,#1734,.T.);
#1732 = VERTEX_POINT('',#1733);
#1733 = CARTESIAN_POINT('',(-1.7399,2.921,6.35));
#1734 = LINE('',#1735,#1736);
#1735 = CARTESIAN_POINT('',(-1.7399,2.921,6.35));
#1736 = VECTOR('',#1737,1.);
#1737 = DIRECTION('',(0.,0.,1.));
#1738 = ORIENTED_EDGE('',*,*,#941,.F.);
#1739 = ORIENTED_EDGE('',*,*,#1667,.F.);
#1740 = ORIENTED_EDGE('',*,*,#1741,.F.);
#1741 = EDGE_CURVE('',#1742,#1668,#1744,.T.);
#1742 = VERTEX_POINT('',#1743);
#1743 = CARTESIAN_POINT('',(-1.7399,2.413,10.73658));
#1744 = LINE('',#1745,#1746);
#1745 = CARTESIAN_POINT('',(-1.7399,2.380879402684,10.616770172013));
#1746 = VECTOR('',#1747,1.);
#1747 = DIRECTION('',(0.,0.25895180774,0.965890242868));
#1748 = ORIENTED_EDGE('',*,*,#1749,.F.);
#1749 = EDGE_CURVE('',#1750,#1742,#1752,.T.);
#1750 = VERTEX_POINT('',#1751);
#1751 = CARTESIAN_POINT('',(-1.7399,2.413,5.842));
#1752 = LINE('',#1753,#1754);
#1753 = CARTESIAN_POINT('',(-1.7399,2.413,10.102119247161));
#1754 = VECTOR('',#1755,1.);
#1755 = DIRECTION('',(0.,0.,1.));
#1756 = ORIENTED_EDGE('',*,*,#1757,.T.);
#1757 = EDGE_CURVE('',#1750,#1732,#1758,.T.);
#1758 = LINE('',#1759,#1760);
#1759 = CARTESIAN_POINT('',(-1.7399,2.413,5.842));
#1760 = VECTOR('',#1761,1.);
#1761 = DIRECTION('',(0.,0.707106781187,0.707106781187));
#1762 = PLANE('',#1763);
#1763 = AXIS2_PLACEMENT_3D('',#1764,#1765,#1766);
#1764 = CARTESIAN_POINT('',(-1.7399,2.400178104766,9.467658494321));
#1765 = DIRECTION('',(1.,0.,0.));
#1766 = DIRECTION('',(0.,0.,1.));
#1767 = ADVANCED_FACE('',(#1768),#1779,.F.);
#1768 = FACE_BOUND('',#1769,.F.);
#1769 = EDGE_LOOP('',(#1770,#1771,#1777,#1778));
#1770 = ORIENTED_EDGE('',*,*,#1691,.F.);
#1771 = ORIENTED_EDGE('',*,*,#1772,.T.);
#1772 = EDGE_CURVE('',#1692,#1732,#1773,.T.);
#1773 = LINE('',#1774,#1775);
#1774 = CARTESIAN_POINT('',(-0.8001,2.921,6.35));
#1775 = VECTOR('',#1776,1.);
#1776 = DIRECTION('',(-1.,-0.,-0.));
#1777 = ORIENTED_EDGE('',*,*,#1731,.T.);
#1778 = ORIENTED_EDGE('',*,*,#949,.F.);
#1779 = PLANE('',#1780);
#1780 = AXIS2_PLACEMENT_3D('',#1781,#1782,#1783);
#1781 = CARTESIAN_POINT('',(-0.8001,2.921,6.35));
#1782 = DIRECTION('',(0.,1.,0.));
#1783 = DIRECTION('',(0.,0.,1.));
#1784 = ADVANCED_FACE('',(#1785),#1810,.T.);
#1785 = FACE_BOUND('',#1786,.T.);
#1786 = EDGE_LOOP('',(#1787,#1795,#1803,#1809));
#1787 = ORIENTED_EDGE('',*,*,#1788,.F.);
#1788 = EDGE_CURVE('',#1789,#982,#1791,.T.);
#1789 = VERTEX_POINT('',#1790);
#1790 = CARTESIAN_POINT('',(2.34,-0.8382,1.27));
#1791 = LINE('',#1792,#1793);
#1792 = CARTESIAN_POINT('',(2.34,-0.8382,1.27));
#1793 = VECTOR('',#1794,1.);
#1794 = DIRECTION('',(0.,0.,1.));
#1795 = ORIENTED_EDGE('',*,*,#1796,.T.);
#1796 = EDGE_CURVE('',#1789,#1797,#1799,.T.);
#1797 = VERTEX_POINT('',#1798);
#1798 = CARTESIAN_POINT('',(0.2,-0.8382,1.27));
#1799 = LINE('',#1800,#1801);
#1800 = CARTESIAN_POINT('',(2.34,-0.8382,1.27));
#1801 = VECTOR('',#1802,1.);
#1802 = DIRECTION('',(-1.,-0.,-0.));
#1803 = ORIENTED_EDGE('',*,*,#1804,.T.);
#1804 = EDGE_CURVE('',#1797,#984,#1805,.T.);
#1805 = LINE('',#1806,#1807);
#1806 = CARTESIAN_POINT('',(0.2,-0.8382,1.27));
#1807 = VECTOR('',#1808,1.);
#1808 = DIRECTION('',(0.,0.,1.));
#1809 = ORIENTED_EDGE('',*,*,#981,.F.);
#1810 = PLANE('',#1811);
#1811 = AXIS2_PLACEMENT_3D('',#1812,#1813,#1814);
#1812 = CARTESIAN_POINT('',(2.34,-0.8382,1.27));
#1813 = DIRECTION('',(0.,1.,0.));
#1814 = DIRECTION('',(0.,0.,1.));
#1815 = ADVANCED_FACE('',(#1816),#1866,.F.);
#1816 = FACE_BOUND('',#1817,.F.);
#1817 = EDGE_LOOP('',(#1818,#1819,#1820,#1828,#1836,#1844,#1852,#1860));
#1818 = ORIENTED_EDGE('',*,*,#1039,.F.);
#1819 = ORIENTED_EDGE('',*,*,#1788,.F.);
#1820 = ORIENTED_EDGE('',*,*,#1821,.F.);
#1821 = EDGE_CURVE('',#1822,#1789,#1824,.T.);
#1822 = VERTEX_POINT('',#1823);
#1823 = CARTESIAN_POINT('',(2.34,0.8255,1.27));
#1824 = LINE('',#1825,#1826);
#1825 = CARTESIAN_POINT('',(2.34,0.8255,1.27));
#1826 = VECTOR('',#1827,1.);
#1827 = DIRECTION('',(0.,-1.,0.));
#1828 = ORIENTED_EDGE('',*,*,#1829,.F.);
#1829 = EDGE_CURVE('',#1830,#1822,#1832,.T.);
#1830 = VERTEX_POINT('',#1831);
#1831 = CARTESIAN_POINT('',(2.34,0.99568,0.635));
#1832 = LINE('',#1833,#1834);
#1833 = CARTESIAN_POINT('',(2.34,0.99568,0.635));
#1834 = VECTOR('',#1835,1.);
#1835 = DIRECTION('',(0.,-0.258864833081,0.965913556274));
#1836 = ORIENTED_EDGE('',*,*,#1837,.F.);
#1837 = EDGE_CURVE('',#1838,#1830,#1840,.T.);
#1838 = VERTEX_POINT('',#1839);
#1839 = CARTESIAN_POINT('',(2.34,2.413,0.635));
#1840 = LINE('',#1841,#1842);
#1841 = CARTESIAN_POINT('',(2.34,2.413,0.635));
#1842 = VECTOR('',#1843,1.);
#1843 = DIRECTION('',(0.,-1.,0.));
#1844 = ORIENTED_EDGE('',*,*,#1845,.F.);
#1845 = EDGE_CURVE('',#1846,#1838,#1848,.T.);
#1846 = VERTEX_POINT('',#1847);
#1847 = CARTESIAN_POINT('',(2.34,2.413,10.73658));
#1848 = LINE('',#1849,#1850);
#1849 = CARTESIAN_POINT('',(2.34,2.413,10.73658));
#1850 = VECTOR('',#1851,1.);
#1851 = DIRECTION('',(0.,0.,-1.));
#1852 = ORIENTED_EDGE('',*,*,#1853,.F.);
#1853 = EDGE_CURVE('',#1854,#1846,#1856,.T.);
#1854 = VERTEX_POINT('',#1855);
#1855 = CARTESIAN_POINT('',(2.34,2.667,11.684));
#1856 = LINE('',#1857,#1858);
#1857 = CARTESIAN_POINT('',(2.34,2.667,11.684));
#1858 = VECTOR('',#1859,1.);
#1859 = DIRECTION('',(0.,-0.25895180774,-0.965890242868));
#1860 = ORIENTED_EDGE('',*,*,#1861,.F.);
#1861 = EDGE_CURVE('',#1032,#1854,#1862,.T.);
#1862 = LINE('',#1863,#1864);
#1863 = CARTESIAN_POINT('',(2.34,2.667,12.954));
#1864 = VECTOR('',#1865,1.);
#1865 = DIRECTION('',(0.,0.,-1.));
#1866 = PLANE('',#1867);
#1867 = AXIS2_PLACEMENT_3D('',#1868,#1869,#1870);
#1868 = CARTESIAN_POINT('',(2.34,0.852584540567,6.912339051753));
#1869 = DIRECTION('',(1.,0.,0.));
#1870 = DIRECTION('',(0.,0.,1.));
#1871 = ADVANCED_FACE('',(#1872),#1890,.T.);
#1872 = FACE_BOUND('',#1873,.T.);
#1873 = EDGE_LOOP('',(#1874,#1875,#1876,#1884));
#1874 = ORIENTED_EDGE('',*,*,#1861,.F.);
#1875 = ORIENTED_EDGE('',*,*,#1031,.F.);
#1876 = ORIENTED_EDGE('',*,*,#1877,.F.);
#1877 = EDGE_CURVE('',#1878,#1024,#1880,.T.);
#1878 = VERTEX_POINT('',#1879);
#1879 = CARTESIAN_POINT('',(1.7399,2.667,11.684));
#1880 = LINE('',#1881,#1882);
#1881 = CARTESIAN_POINT('',(1.7399,2.667,11.210829247161));
#1882 = VECTOR('',#1883,1.);
#1883 = DIRECTION('',(0.,0.,1.));
#1884 = ORIENTED_EDGE('',*,*,#1885,.F.);
#1885 = EDGE_CURVE('',#1854,#1878,#1886,.T.);
#1886 = LINE('',#1887,#1888);
#1887 = CARTESIAN_POINT('',(2.34,2.667,11.684));
#1888 = VECTOR('',#1889,1.);
#1889 = DIRECTION('',(-1.,-0.,-0.));
#1890 = PLANE('',#1891);
#1891 = AXIS2_PLACEMENT_3D('',#1892,#1893,#1894);
#1892 = CARTESIAN_POINT('',(2.34,2.667,12.954));
#1893 = DIRECTION('',(0.,-1.,0.));
#1894 = DIRECTION('',(0.,0.,-1.));
#1895 = ADVANCED_FACE('',(#1896),#1930,.F.);
#1896 = FACE_BOUND('',#1897,.F.);
#1897 = EDGE_LOOP('',(#1898,#1906,#1907,#1908,#1916,#1924));
#1898 = ORIENTED_EDGE('',*,*,#1899,.T.);
#1899 = EDGE_CURVE('',#1900,#1016,#1902,.T.);
#1900 = VERTEX_POINT('',#1901);
#1901 = CARTESIAN_POINT('',(1.7399,2.921,6.35));
#1902 = LINE('',#1903,#1904);
#1903 = CARTESIAN_POINT('',(1.7399,2.921,6.35));
#1904 = VECTOR('',#1905,1.);
#1905 = DIRECTION('',(0.,0.,1.));
#1906 = ORIENTED_EDGE('',*,*,#1023,.F.);
#1907 = ORIENTED_EDGE('',*,*,#1877,.F.);
#1908 = ORIENTED_EDGE('',*,*,#1909,.F.);
#1909 = EDGE_CURVE('',#1910,#1878,#1912,.T.);
#1910 = VERTEX_POINT('',#1911);
#1911 = CARTESIAN_POINT('',(1.7399,2.413,10.73658));
#1912 = LINE('',#1913,#1914);
#1913 = CARTESIAN_POINT('',(1.7399,2.380879402684,10.616770172013));
#1914 = VECTOR('',#1915,1.);
#1915 = DIRECTION('',(0.,0.25895180774,0.965890242868));
#1916 = ORIENTED_EDGE('',*,*,#1917,.F.);
#1917 = EDGE_CURVE('',#1918,#1910,#1920,.T.);
#1918 = VERTEX_POINT('',#1919);
#1919 = CARTESIAN_POINT('',(1.7399,2.413,5.842));
#1920 = LINE('',#1921,#1922);
#1921 = CARTESIAN_POINT('',(1.7399,2.413,10.102119247161));
#1922 = VECTOR('',#1923,1.);
#1923 = DIRECTION('',(0.,0.,1.));
#1924 = ORIENTED_EDGE('',*,*,#1925,.T.);
#1925 = EDGE_CURVE('',#1918,#1900,#1926,.T.);
#1926 = LINE('',#1927,#1928);
#1927 = CARTESIAN_POINT('',(1.7399,2.413,5.842));
#1928 = VECTOR('',#1929,1.);
#1929 = DIRECTION('',(0.,0.707106781187,0.707106781187));
#1930 = PLANE('',#1931);
#1931 = AXIS2_PLACEMENT_3D('',#1932,#1933,#1934);
#1932 = CARTESIAN_POINT('',(1.7399,2.400178104766,9.467658494321));
#1933 = DIRECTION('',(1.,0.,0.));
#1934 = DIRECTION('',(0.,0.,1.));
#1935 = ADVANCED_FACE('',(#1936),#1954,.F.);
#1936 = FACE_BOUND('',#1937,.F.);
#1937 = EDGE_LOOP('',(#1938,#1939,#1947,#1953));
#1938 = ORIENTED_EDGE('',*,*,#1899,.F.);
#1939 = ORIENTED_EDGE('',*,*,#1940,.T.);
#1940 = EDGE_CURVE('',#1900,#1941,#1943,.T.);
#1941 = VERTEX_POINT('',#1942);
#1942 = CARTESIAN_POINT('',(0.8001,2.921,6.35));
#1943 = LINE('',#1944,#1945);
#1944 = CARTESIAN_POINT('',(1.7399,2.921,6.35));
#1945 = VECTOR('',#1946,1.);
#1946 = DIRECTION('',(-1.,-0.,-0.));
#1947 = ORIENTED_EDGE('',*,*,#1948,.T.);
#1948 = EDGE_CURVE('',#1941,#1008,#1949,.T.);
#1949 = LINE('',#1950,#1951);
#1950 = CARTESIAN_POINT('',(0.8001,2.921,6.35));
#1951 = VECTOR('',#1952,1.);
#1952 = DIRECTION('',(0.,0.,1.));
#1953 = ORIENTED_EDGE('',*,*,#1015,.F.);
#1954 = PLANE('',#1955);
#1955 = AXIS2_PLACEMENT_3D('',#1956,#1957,#1958);
#1956 = CARTESIAN_POINT('',(1.7399,2.921,6.35));
#1957 = DIRECTION('',(0.,1.,0.));
#1958 = DIRECTION('',(0.,0.,1.));
#1959 = ADVANCED_FACE('',(#1960),#1994,.T.);
#1960 = FACE_BOUND('',#1961,.T.);
#1961 = EDGE_LOOP('',(#1962,#1963,#1964,#1972,#1980,#1988));
#1962 = ORIENTED_EDGE('',*,*,#1948,.T.);
#1963 = ORIENTED_EDGE('',*,*,#1007,.F.);
#1964 = ORIENTED_EDGE('',*,*,#1965,.F.);
#1965 = EDGE_CURVE('',#1966,#1000,#1968,.T.);
#1966 = VERTEX_POINT('',#1967);
#1967 = CARTESIAN_POINT('',(0.8001,2.667,11.684));
#1968 = LINE('',#1969,#1970);
#1969 = CARTESIAN_POINT('',(0.8001,2.667,11.210829247161));
#1970 = VECTOR('',#1971,1.);
#1971 = DIRECTION('',(0.,0.,1.));
#1972 = ORIENTED_EDGE('',*,*,#1973,.F.);
#1973 = EDGE_CURVE('',#1974,#1966,#1976,.T.);
#1974 = VERTEX_POINT('',#1975);
#1975 = CARTESIAN_POINT('',(0.8001,2.413,10.73658));
#1976 = LINE('',#1977,#1978);
#1977 = CARTESIAN_POINT('',(0.8001,2.380879402684,10.616770172013));
#1978 = VECTOR('',#1979,1.);
#1979 = DIRECTION('',(0.,0.25895180774,0.965890242868));
#1980 = ORIENTED_EDGE('',*,*,#1981,.F.);
#1981 = EDGE_CURVE('',#1982,#1974,#1984,.T.);
#1982 = VERTEX_POINT('',#1983);
#1983 = CARTESIAN_POINT('',(0.8001,2.413,5.842));
#1984 = LINE('',#1985,#1986);
#1985 = CARTESIAN_POINT('',(0.8001,2.413,10.102119247161));
#1986 = VECTOR('',#1987,1.);
#1987 = DIRECTION('',(0.,0.,1.));
#1988 = ORIENTED_EDGE('',*,*,#1989,.T.);
#1989 = EDGE_CURVE('',#1982,#1941,#1990,.T.);
#1990 = LINE('',#1991,#1992);
#1991 = CARTESIAN_POINT('',(0.8001,2.413,5.842));
#1992 = VECTOR('',#1993,1.);
#1993 = DIRECTION('',(0.,0.707106781187,0.707106781187));
#1994 = PLANE('',#1995);
#1995 = AXIS2_PLACEMENT_3D('',#1996,#1997,#1998);
#1996 = CARTESIAN_POINT('',(0.8001,2.400178104766,9.467658494321));
#1997 = DIRECTION('',(1.,0.,0.));
#1998 = DIRECTION('',(0.,0.,1.));
#1999 = ADVANCED_FACE('',(#2000),#2018,.T.);
#2000 = FACE_BOUND('',#2001,.T.);
#2001 = EDGE_LOOP('',(#2002,#2003,#2004,#2012));
#2002 = ORIENTED_EDGE('',*,*,#1965,.T.);
#2003 = ORIENTED_EDGE('',*,*,#999,.F.);
#2004 = ORIENTED_EDGE('',*,*,#2005,.T.);
#2005 = EDGE_CURVE('',#992,#2006,#2008,.T.);
#2006 = VERTEX_POINT('',#2007);
#2007 = CARTESIAN_POINT('',(0.2,2.667,11.684));
#2008 = LINE('',#2009,#2010);
#2009 = CARTESIAN_POINT('',(0.2,2.667,12.954));
#2010 = VECTOR('',#2011,1.);
#2011 = DIRECTION('',(0.,0.,-1.));
#2012 = ORIENTED_EDGE('',*,*,#2013,.F.);
#2013 = EDGE_CURVE('',#1966,#2006,#2014,.T.);
#2014 = LINE('',#2015,#2016);
#2015 = CARTESIAN_POINT('',(2.34,2.667,11.684));
#2016 = VECTOR('',#2017,1.);
#2017 = DIRECTION('',(-1.,-0.,-0.));
#2018 = PLANE('',#2019);
#2019 = AXIS2_PLACEMENT_3D('',#2020,#2021,#2022);
#2020 = CARTESIAN_POINT('',(2.34,2.667,12.954));
#2021 = DIRECTION('',(0.,-1.,0.));
#2022 = DIRECTION('',(0.,0.,-1.));
#2023 = ADVANCED_FACE('',(#2024),#2067,.T.);
#2024 = FACE_BOUND('',#2025,.T.);
#2025 = EDGE_LOOP('',(#2026,#2027,#2028,#2036,#2044,#2052,#2060,#2066));
#2026 = ORIENTED_EDGE('',*,*,#991,.F.);
#2027 = ORIENTED_EDGE('',*,*,#1804,.F.);
#2028 = ORIENTED_EDGE('',*,*,#2029,.F.);
#2029 = EDGE_CURVE('',#2030,#1797,#2032,.T.);
#2030 = VERTEX_POINT('',#2031);
#2031 = CARTESIAN_POINT('',(0.2,0.8255,1.27));
#2032 = LINE('',#2033,#2034);
#2033 = CARTESIAN_POINT('',(0.2,0.8255,1.27));
#2034 = VECTOR('',#2035,1.);
#2035 = DIRECTION('',(0.,-1.,0.));
#2036 = ORIENTED_EDGE('',*,*,#2037,.F.);
#2037 = EDGE_CURVE('',#2038,#2030,#2040,.T.);
#2038 = VERTEX_POINT('',#2039);
#2039 = CARTESIAN_POINT('',(0.2,0.99568,0.635));
#2040 = LINE('',#2041,#2042);
#2041 = CARTESIAN_POINT('',(0.2,0.99568,0.635));
#2042 = VECTOR('',#2043,1.);
#2043 = DIRECTION('',(0.,-0.258864833081,0.965913556274));
#2044 = ORIENTED_EDGE('',*,*,#2045,.F.);
#2045 = EDGE_CURVE('',#2046,#2038,#2048,.T.);
#2046 = VERTEX_POINT('',#2047);
#2047 = CARTESIAN_POINT('',(0.2,2.413,0.635));
#2048 = LINE('',#2049,#2050);
#2049 = CARTESIAN_POINT('',(0.2,2.413,0.635));
#2050 = VECTOR('',#2051,1.);
#2051 = DIRECTION('',(0.,-1.,0.));
#2052 = ORIENTED_EDGE('',*,*,#2053,.F.);
#2053 = EDGE_CURVE('',#2054,#2046,#2056,.T.);
#2054 = VERTEX_POINT('',#2055);
#2055 = CARTESIAN_POINT('',(0.2,2.413,10.73658));
#2056 = LINE('',#2057,#2058);
#2057 = CARTESIAN_POINT('',(0.2,2.413,10.73658));
#2058 = VECTOR('',#2059,1.);
#2059 = DIRECTION('',(0.,0.,-1.));
#2060 = ORIENTED_EDGE('',*,*,#2061,.F.);
#2061 = EDGE_CURVE('',#2006,#2054,#2062,.T.);
#2062 = LINE('',#2063,#2064);
#2063 = CARTESIAN_POINT('',(0.2,2.667,11.684));
#2064 = VECTOR('',#2065,1.);
#2065 = DIRECTION('',(0.,-0.25895180774,-0.965890242868));
#2066 = ORIENTED_EDGE('',*,*,#2005,.F.);
#2067 = PLANE('',#2068);
#2068 = AXIS2_PLACEMENT_3D('',#2069,#2070,#2071);
#2069 = CARTESIAN_POINT('',(0.2,0.852584540567,6.912339051753));
#2070 = DIRECTION('',(1.,0.,0.));
#2071 = DIRECTION('',(0.,0.,1.));
#2072 = ADVANCED_FACE('',(#2073,#2103),#2109,.T.);
#2073 = FACE_BOUND('',#2074,.T.);
#2074 = EDGE_LOOP('',(#2075,#2076,#2082,#2083,#2089,#2090,#2096,#2097));
#2075 = ORIENTED_EDGE('',*,*,#1845,.F.);
#2076 = ORIENTED_EDGE('',*,*,#2077,.T.);
#2077 = EDGE_CURVE('',#1846,#1910,#2078,.T.);
#2078 = LINE('',#2079,#2080);
#2079 = CARTESIAN_POINT('',(2.34,2.413,10.73658));
#2080 = VECTOR('',#2081,1.);
#2081 = DIRECTION('',(-1.,-0.,-0.));
#2082 = ORIENTED_EDGE('',*,*,#1917,.F.);
#2083 = ORIENTED_EDGE('',*,*,#2084,.T.);
#2084 = EDGE_CURVE('',#1918,#1982,#2085,.T.);
#2085 = LINE('',#2086,#2087);
#2086 = CARTESIAN_POINT('',(1.7399,2.413,5.842));
#2087 = VECTOR('',#2088,1.);
#2088 = DIRECTION('',(-1.,-0.,-0.));
#2089 = ORIENTED_EDGE('',*,*,#1981,.T.);
#2090 = ORIENTED_EDGE('',*,*,#2091,.T.);
#2091 = EDGE_CURVE('',#1974,#2054,#2092,.T.);
#2092 = LINE('',#2093,#2094);
#2093 = CARTESIAN_POINT('',(2.34,2.413,10.73658));
#2094 = VECTOR('',#2095,1.);
#2095 = DIRECTION('',(-1.,-0.,-0.));
#2096 = ORIENTED_EDGE('',*,*,#2053,.T.);
#2097 = ORIENTED_EDGE('',*,*,#2098,.F.);
#2098 = EDGE_CURVE('',#1838,#2046,#2099,.T.);
#2099 = LINE('',#2100,#2101);
#2100 = CARTESIAN_POINT('',(2.34,2.413,0.635));
#2101 = VECTOR('',#2102,1.);
#2102 = DIRECTION('',(-1.,-0.,-0.));
#2103 = FACE_BOUND('',#2104,.T.);
#2104 = EDGE_LOOP('',(#2105,#2106,#2107,#2108));
#2105 = ORIENTED_EDGE('',*,*,#1053,.F.);
#2106 = ORIENTED_EDGE('',*,*,#1132,.F.);
#2107 = ORIENTED_EDGE('',*,*,#1108,.F.);
#2108 = ORIENTED_EDGE('',*,*,#1084,.F.);
#2109 = PLANE('',#2110);
#2110 = AXIS2_PLACEMENT_3D('',#2111,#2112,#2113);
#2111 = CARTESIAN_POINT('',(2.34,2.413,10.73658));
#2112 = DIRECTION('',(0.,-1.,0.));
#2113 = DIRECTION('',(0.,0.,-1.));
#2114 = ADVANCED_FACE('',(#2115,#2145),#2151,.T.);
#2115 = FACE_BOUND('',#2116,.T.);
#2116 = EDGE_LOOP('',(#2117,#2118,#2124,#2125,#2131,#2132,#2138,#2139));
#2117 = ORIENTED_EDGE('',*,*,#1557,.F.);
#2118 = ORIENTED_EDGE('',*,*,#2119,.T.);
#2119 = EDGE_CURVE('',#1558,#1702,#2120,.T.);
#2120 = LINE('',#2121,#2122);
#2121 = CARTESIAN_POINT('',(-0.2,2.413,10.73658));
#2122 = VECTOR('',#2123,1.);
#2123 = DIRECTION('',(-1.,-0.,-0.));
#2124 = ORIENTED_EDGE('',*,*,#1709,.F.);
#2125 = ORIENTED_EDGE('',*,*,#2126,.T.);
#2126 = EDGE_CURVE('',#1710,#1750,#2127,.T.);
#2127 = LINE('',#2128,#2129);
#2128 = CARTESIAN_POINT('',(-0.8001,2.413,5.842));
#2129 = VECTOR('',#2130,1.);
#2130 = DIRECTION('',(-1.,-0.,-0.));
#2131 = ORIENTED_EDGE('',*,*,#1749,.T.);
#2132 = ORIENTED_EDGE('',*,*,#2133,.T.);
#2133 = EDGE_CURVE('',#1742,#1614,#2134,.T.);
#2134 = LINE('',#2135,#2136);
#2135 = CARTESIAN_POINT('',(-0.2,2.413,10.73658));
#2136 = VECTOR('',#2137,1.);
#2137 = DIRECTION('',(-1.,-0.,-0.));
#2138 = ORIENTED_EDGE('',*,*,#1613,.T.);
#2139 = ORIENTED_EDGE('',*,*,#2140,.F.);
#2140 = EDGE_CURVE('',#1550,#1606,#2141,.T.);
#2141 = LINE('',#2142,#2143);
#2142 = CARTESIAN_POINT('',(-0.2,2.413,0.635));
#2143 = VECTOR('',#2144,1.);
#2144 = DIRECTION('',(-1.,-0.,-0.));
#2145 = FACE_BOUND('',#2146,.T.);
#2146 = EDGE_LOOP('',(#2147,#2148,#2149,#2150));
#2147 = ORIENTED_EDGE('',*,*,#1149,.F.);
#2148 = ORIENTED_EDGE('',*,*,#1180,.F.);
#2149 = ORIENTED_EDGE('',*,*,#1228,.F.);
#2150 = ORIENTED_EDGE('',*,*,#1204,.F.);
#2151 = PLANE('',#2152);
#2152 = AXIS2_PLACEMENT_3D('',#2153,#2154,#2155);
#2153 = CARTESIAN_POINT('',(-0.2,2.413,10.73658));
#2154 = DIRECTION('',(0.,-1.,0.));
#2155 = DIRECTION('',(0.,0.,-1.));
#2156 = ADVANCED_FACE('',(#2157,#2168),#2174,.T.);
#2157 = FACE_BOUND('',#2158,.T.);
#2158 = EDGE_LOOP('',(#2159,#2165,#2166,#2167));
#2159 = ORIENTED_EDGE('',*,*,#2160,.T.);
#2160 = EDGE_CURVE('',#1534,#1590,#2161,.T.);
#2161 = LINE('',#2162,#2163);
#2162 = CARTESIAN_POINT('',(-0.2,0.8255,1.27));
#2163 = VECTOR('',#2164,1.);
#2164 = DIRECTION('',(-1.,-0.,-0.));
#2165 = ORIENTED_EDGE('',*,*,#1589,.T.);
#2166 = ORIENTED_EDGE('',*,*,#1508,.F.);
#2167 = ORIENTED_EDGE('',*,*,#1533,.F.);
#2168 = FACE_BOUND('',#2169,.T.);
#2169 = EDGE_LOOP('',(#2170,#2171,#2172,#2173));
#2170 = ORIENTED_EDGE('',*,*,#1321,.F.);
#2171 = ORIENTED_EDGE('',*,*,#1369,.F.);
#2172 = ORIENTED_EDGE('',*,*,#1352,.F.);
#2173 = ORIENTED_EDGE('',*,*,#1297,.F.);
#2174 = PLANE('',#2175);
#2175 = AXIS2_PLACEMENT_3D('',#2176,#2177,#2178);
#2176 = CARTESIAN_POINT('',(-1.27,-6.35E-03,1.27));
#2177 = DIRECTION('',(0.,0.,1.));
#2178 = DIRECTION('',(1.,0.,0.));
#2179 = ADVANCED_FACE('',(#2180,#2191),#2197,.T.);
#2180 = FACE_BOUND('',#2181,.T.);
#2181 = EDGE_LOOP('',(#2182,#2183,#2189,#2190));
#2182 = ORIENTED_EDGE('',*,*,#1821,.F.);
#2183 = ORIENTED_EDGE('',*,*,#2184,.T.);
#2184 = EDGE_CURVE('',#1822,#2030,#2185,.T.);
#2185 = LINE('',#2186,#2187);
#2186 = CARTESIAN_POINT('',(2.34,0.8255,1.27));
#2187 = VECTOR('',#2188,1.);
#2188 = DIRECTION('',(-1.,-0.,-0.));
#2189 = ORIENTED_EDGE('',*,*,#2029,.T.);
#2190 = ORIENTED_EDGE('',*,*,#1796,.F.);
#2191 = FACE_BOUND('',#2192,.T.);
#2192 = EDGE_LOOP('',(#2193,#2194,#2195,#2196));
#2193 = ORIENTED_EDGE('',*,*,#1464,.F.);
#2194 = ORIENTED_EDGE('',*,*,#1440,.F.);
#2195 = ORIENTED_EDGE('',*,*,#1385,.F.);
#2196 = ORIENTED_EDGE('',*,*,#1416,.F.);
#2197 = PLANE('',#2198);
#2198 = AXIS2_PLACEMENT_3D('',#2199,#2200,#2201);
#2199 = CARTESIAN_POINT('',(1.27,-6.35E-03,1.27));
#2200 = DIRECTION('',(0.,0.,1.));
#2201 = DIRECTION('',(1.,0.,0.));
#2202 = ADVANCED_FACE('',(#2203),#2209,.T.);
#2203 = FACE_BOUND('',#2204,.T.);
#2204 = EDGE_LOOP('',(#2205,#2206,#2207,#2208));
#2205 = ORIENTED_EDGE('',*,*,#1565,.F.);
#2206 = ORIENTED_EDGE('',*,*,#1653,.T.);
#2207 = ORIENTED_EDGE('',*,*,#1701,.F.);
#2208 = ORIENTED_EDGE('',*,*,#2119,.F.);
#2209 = PLANE('',#2210);
#2210 = AXIS2_PLACEMENT_3D('',#2211,#2212,#2213);
#2211 = CARTESIAN_POINT('',(-0.2,2.667,11.684));
#2212 = DIRECTION('',(0.,-0.965890242868,0.25895180774));
#2213 = DIRECTION('',(0.,-0.25895180774,-0.965890242868));
#2214 = ADVANCED_FACE('',(#2215),#2226,.T.);
#2215 = FACE_BOUND('',#2216,.T.);
#2216 = EDGE_LOOP('',(#2217,#2218,#2219,#2225));
#2217 = ORIENTED_EDGE('',*,*,#2140,.T.);
#2218 = ORIENTED_EDGE('',*,*,#1605,.T.);
#2219 = ORIENTED_EDGE('',*,*,#2220,.F.);
#2220 = EDGE_CURVE('',#1542,#1598,#2221,.T.);
#2221 = LINE('',#2222,#2223);
#2222 = CARTESIAN_POINT('',(-0.2,0.99568,0.635));
#2223 = VECTOR('',#2224,1.);
#2224 = DIRECTION('',(-1.,-0.,-0.));
#2225 = ORIENTED_EDGE('',*,*,#1549,.F.);
#2226 = PLANE('',#2227);
#2227 = AXIS2_PLACEMENT_3D('',#2228,#2229,#2230);
#2228 = CARTESIAN_POINT('',(-0.2,2.413,0.635));
#2229 = DIRECTION('',(0.,0.,1.));
#2230 = DIRECTION('',(0.,-1.,0.));
#2231 = ADVANCED_FACE('',(#2232),#2238,.T.);
#2232 = FACE_BOUND('',#2233,.T.);
#2233 = EDGE_LOOP('',(#2234,#2235,#2236,#2237));
#2234 = ORIENTED_EDGE('',*,*,#2220,.T.);
#2235 = ORIENTED_EDGE('',*,*,#1597,.T.);
#2236 = ORIENTED_EDGE('',*,*,#2160,.F.);
#2237 = ORIENTED_EDGE('',*,*,#1541,.F.);
#2238 = PLANE('',#2239);
#2239 = AXIS2_PLACEMENT_3D('',#2240,#2241,#2242);
#2240 = CARTESIAN_POINT('',(-0.2,0.99568,0.635));
#2241 = DIRECTION('',(0.,0.965913556274,0.258864833081));
#2242 = DIRECTION('',(0.,-0.258864833081,0.965913556274));
#2243 = ADVANCED_FACE('',(#2244),#2250,.T.);
#2244 = FACE_BOUND('',#2245,.T.);
#2245 = EDGE_LOOP('',(#2246,#2247,#2248,#2249));
#2246 = ORIENTED_EDGE('',*,*,#1741,.T.);
#2247 = ORIENTED_EDGE('',*,*,#1677,.T.);
#2248 = ORIENTED_EDGE('',*,*,#1621,.T.);
#2249 = ORIENTED_EDGE('',*,*,#2133,.F.);
#2250 = PLANE('',#2251);
#2251 = AXIS2_PLACEMENT_3D('',#2252,#2253,#2254);
#2252 = CARTESIAN_POINT('',(-0.2,2.667,11.684));
#2253 = DIRECTION('',(0.,-0.965890242868,0.25895180774));
#2254 = DIRECTION('',(0.,-0.25895180774,-0.965890242868));
#2255 = ADVANCED_FACE('',(#2256),#2262,.F.);
#2256 = FACE_BOUND('',#2257,.F.);
#2257 = EDGE_LOOP('',(#2258,#2259,#2260,#2261));
#2258 = ORIENTED_EDGE('',*,*,#2126,.T.);
#2259 = ORIENTED_EDGE('',*,*,#1757,.T.);
#2260 = ORIENTED_EDGE('',*,*,#1772,.F.);
#2261 = ORIENTED_EDGE('',*,*,#1717,.F.);
#2262 = PLANE('',#2263);
#2263 = AXIS2_PLACEMENT_3D('',#2264,#2265,#2266);
#2264 = CARTESIAN_POINT('',(-0.8001,2.413,5.842));
#2265 = DIRECTION('',(0.,0.707106781187,-0.707106781187));
#2266 = DIRECTION('',(0.,0.707106781187,0.707106781187));
#2267 = ADVANCED_FACE('',(#2268),#2274,.T.);
#2268 = FACE_BOUND('',#2269,.T.);
#2269 = EDGE_LOOP('',(#2270,#2271,#2272,#2273));
#2270 = ORIENTED_EDGE('',*,*,#1853,.F.);
#2271 = ORIENTED_EDGE('',*,*,#1885,.T.);
#2272 = ORIENTED_EDGE('',*,*,#1909,.F.);
#2273 = ORIENTED_EDGE('',*,*,#2077,.F.);
#2274 = PLANE('',#2275);
#2275 = AXIS2_PLACEMENT_3D('',#2276,#2277,#2278);
#2276 = CARTESIAN_POINT('',(2.34,2.667,11.684));
#2277 = DIRECTION('',(0.,-0.965890242868,0.25895180774));
#2278 = DIRECTION('',(0.,-0.25895180774,-0.965890242868));
#2279 = ADVANCED_FACE('',(#2280),#2291,.T.);
#2280 = FACE_BOUND('',#2281,.T.);
#2281 = EDGE_LOOP('',(#2282,#2283,#2284,#2290));
#2282 = ORIENTED_EDGE('',*,*,#2098,.T.);
#2283 = ORIENTED_EDGE('',*,*,#2045,.T.);
#2284 = ORIENTED_EDGE('',*,*,#2285,.F.);
#2285 = EDGE_CURVE('',#1830,#2038,#2286,.T.);
#2286 = LINE('',#2287,#2288);
#2287 = CARTESIAN_POINT('',(2.34,0.99568,0.635));
#2288 = VECTOR('',#2289,1.);
#2289 = DIRECTION('',(-1.,-0.,-0.));
#2290 = ORIENTED_EDGE('',*,*,#1837,.F.);
#2291 = PLANE('',#2292);
#2292 = AXIS2_PLACEMENT_3D('',#2293,#2294,#2295);
#2293 = CARTESIAN_POINT('',(2.34,2.413,0.635));
#2294 = DIRECTION('',(0.,0.,1.));
#2295 = DIRECTION('',(0.,-1.,0.));
#2296 = ADVANCED_FACE('',(#2297),#2303,.T.);
#2297 = FACE_BOUND('',#2298,.T.);
#2298 = EDGE_LOOP('',(#2299,#2300,#2301,#2302));
#2299 = ORIENTED_EDGE('',*,*,#2285,.T.);
#2300 = ORIENTED_EDGE('',*,*,#2037,.T.);
#2301 = ORIENTED_EDGE('',*,*,#2184,.F.);
#2302 = ORIENTED_EDGE('',*,*,#1829,.F.);
#2303 = PLANE('',#2304);
#2304 = AXIS2_PLACEMENT_3D('',#2305,#2306,#2307);
#2305 = CARTESIAN_POINT('',(2.34,0.99568,0.635));
#2306 = DIRECTION('',(0.,0.965913556274,0.258864833081));
#2307 = DIRECTION('',(0.,-0.258864833081,0.965913556274));
#2308 = ADVANCED_FACE('',(#2309),#2315,.F.);
#2309 = FACE_BOUND('',#2310,.F.);
#2310 = EDGE_LOOP('',(#2311,#2312,#2313,#2314));
#2311 = ORIENTED_EDGE('',*,*,#2084,.T.);
#2312 = ORIENTED_EDGE('',*,*,#1989,.T.);
#2313 = ORIENTED_EDGE('',*,*,#1940,.F.);
#2314 = ORIENTED_EDGE('',*,*,#1925,.F.);
#2315 = PLANE('',#2316);
#2316 = AXIS2_PLACEMENT_3D('',#2317,#2318,#2319);
#2317 = CARTESIAN_POINT('',(1.7399,2.413,5.842));
#2318 = DIRECTION('',(0.,0.707106781187,-0.707106781187));
#2319 = DIRECTION('',(0.,0.707106781187,0.707106781187));
#2320 = ADVANCED_FACE('',(#2321),#2327,.T.);
#2321 = FACE_BOUND('',#2322,.T.);
#2322 = EDGE_LOOP('',(#2323,#2324,#2325,#2326));
#2323 = ORIENTED_EDGE('',*,*,#1973,.T.);
#2324 = ORIENTED_EDGE('',*,*,#2013,.T.);
#2325 = ORIENTED_EDGE('',*,*,#2061,.T.);
#2326 = ORIENTED_EDGE('',*,*,#2091,.F.);
#2327 = PLANE('',#2328);
#2328 = AXIS2_PLACEMENT_3D('',#2329,#2330,#2331);
#2329 = CARTESIAN_POINT('',(2.34,2.667,11.684));
#2330 = DIRECTION('',(0.,-0.965890242868,0.25895180774));
#2331 = DIRECTION('',(0.,-0.25895180774,-0.965890242868));
#2332 = ( GEOMETRIC_REPRESENTATION_CONTEXT(3) 
GLOBAL_UNCERTAINTY_ASSIGNED_CONTEXT((#2336)) 
GLOBAL_UNIT_ASSIGNED_CONTEXT((#2333,#2334,#2335)) REPRESENTATION_CONTEXT
('Context #1','3D Context with UNIT and UNCERTAINTY') );
#2333 = ( LENGTH_UNIT() NAMED_UNIT(*) SI_UNIT(.MILLI.,.METRE.) );
#2334 = ( NAMED_UNIT(*) PLANE_ANGLE_UNIT() SI_UNIT($,.RADIAN.) );
#2335 = ( NAMED_UNIT(*) SI_UNIT($,.STERADIAN.) SOLID_ANGLE_UNIT() );
#2336 = UNCERTAINTY_MEASURE_WITH_UNIT(LENGTH_MEASURE(5.E-06),#2333,
  'distance_accuracy_value','confusion accuracy');
#2337 = PRODUCT_RELATED_PRODUCT_CATEGORY('part',$,(#7));
#2338 = MECHANICAL_DESIGN_GEOMETRIC_PRESENTATION_REPRESENTATION('',(
    #2339),#2332);
#2339 = STYLED_ITEM('color',(#2340),#15);
#2340 = PRESENTATION_STYLE_ASSIGNMENT((#2341,#2347));
#2341 = SURFACE_STYLE_USAGE(.BOTH.,#2342);
#2342 = SURFACE_SIDE_STYLE('',(#2343));
#2343 = SURFACE_STYLE_FILL_AREA(#2344);
#2344 = FILL_AREA_STYLE('',(#2345));
#2345 = FILL_AREA_STYLE_COLOUR('',#2346);
#2346 = COLOUR_RGB('',0.800000010877,0.800000010877,0.901960800373);
#2347 = CURVE_STYLE('',#2348,POSITIVE_LENGTH_MEASURE(0.1),#2349);
#2348 = DRAUGHTING_PRE_DEFINED_CURVE_FONT('continuous');
#2349 = DRAUGHTING_PRE_DEFINED_COLOUR('black');
ENDSEC;
END-ISO-10303-21;
